<?xml version="1.0" encoding="UTF-8"?>
<svg width="26px" height="20px" viewBox="0 0 26 20" version="1.1" xmlns="http://www.w3.org/2000/svg" xmlns:xlink="http://www.w3.org/1999/xlink">
    <!-- Generator: Sketch 43.1 (39012) - http://www.bohemiancoding.com/sketch -->
    <title>check-white</title>
    <desc>Created with Sketch.</desc>
    <defs></defs>
    <g id="blue" stroke="none" stroke-width="1" fill="none" fill-rule="evenodd">
        <g id="2.0-dashboard" transform="translate(-148.000000, -136.000000)">
            <g id="Group" transform="translate(140.000000, 126.000000)">
                <g id="check-white" transform="translate(6.000000, 6.000000)">
                    <polygon id="Bounds" points="0 0 28 0 28 28 0 28"></polygon>
                    <path d="M2.79392296,15.206077 C3.18387854,14.8161215 3.88713884,14.7084594 4.37661892,14.9720256 L10,18 L25.7263016,5.13302594 C26.1536034,4.78341537 26.8181114,4.81811142 27.206077,5.20607704 L27.2236376,5.22363764 C27.6524107,5.65241073 27.6564991,6.34350085 27.2265625,6.7734375 L10.7056213,23.2943787 C10.3159174,23.6840826 9.6764822,23.6764822 9.29005337,23.2900534 L2.84856631,16.8485663 C2.37991608,16.3799161 2.37851334,15.6214867 2.85515976,15.1448402 L2.79392296,15.206077 Z" id="Checkmark" fill="#FFFFFF"></path>
                </g>
            </g>
        </g>
    </g>
</svg>