<?xml version="1.0" encoding="utf-8"?>
<!-- Generator: Adobe Illustrator 19.2.0, SVG Export Plug-In . SVG Version: 6.00 Build 0)  -->
<svg version="1.1" id="Layer_1" xmlns="http://www.w3.org/2000/svg" xmlns:xlink="http://www.w3.org/1999/xlink" x="0px" y="0px"
	 viewBox="0 0 51 51" style="enable-background:new 0 0 51 51;" xml:space="preserve">
<style type="text/css">
	.st0{fill:#0F2845;}
	.st1{clip-path:url(#SVGID_2_);}
	.st2{clip-path:url(#SVGID_4_);fill:#ABEC90;}
</style>
<title>icon-bitcoin</title>
<desc>Created with Sketch.</desc>
<g>
	<g>
		<path id="coin" class="st0" d="M25.5,51C39.6,51,51,39.6,51,25.5S39.5,0,25.5,0S0,11.4,0,25.5S11.4,51,25.5,51z"/>
		<g id="Page-1">
			<g id="icon-bitcoin">
				<defs>
					<path id="SVGID_1_" d="M28.8,35.4c0,0.6,0.1,1.1,0.2,1.4c0.1,0.4,0.3,0.6,0.5,0.8s0.4,0.3,0.7,0.4c0.3,0.1,0.5,0.1,0.8,0.1h1.8
						v2.2H18.3v-2.2H20c0.3,0,0.6,0,0.9-0.1s0.5-0.2,0.7-0.4s0.3-0.5,0.5-0.8c0.1-0.4,0.2-0.8,0.2-1.4V13.2H19
						c-0.6,0-1.1,0.1-1.6,0.2c-0.4,0.1-0.8,0.3-1,0.6c-0.3,0.3-0.5,0.6-0.6,0.9c-0.1,0.4-0.2,0.8-0.3,1.2l-0.3,2.6h-2.8l0.2-8.1
						h25.9l0.2,8.1h-2.8l-0.3-2.6c-0.1-0.5-0.1-0.9-0.3-1.2c-0.1-0.4-0.3-0.7-0.6-0.9c-0.3-0.3-0.6-0.4-1-0.6
						c-0.4-0.1-0.9-0.2-1.6-0.2h-3.3C28.8,13.2,28.8,35.4,28.8,35.4z"/>
				</defs>
				<clipPath id="SVGID_2_">
					<use xlink:href="#SVGID_1_"  style="overflow:visible;"/>
				</clipPath>
				<g class="st1">
					<g>
						<defs>
							<rect id="SVGID_3_" x="-75.8" y="-136" width="202.7" height="359.8"/>
						</defs>
						<clipPath id="SVGID_4_">
							<use xlink:href="#SVGID_3_"  style="overflow:visible;"/>
						</clipPath>
						<rect x="9.1" y="7.5" class="st2" width="32.7" height="36.1"/>
					</g>
				</g>
			</g>
		</g>
	</g>
</g>
</svg>
