<?xml version="1.0" encoding="UTF-8"?>
<svg width="54px" height="21px" viewBox="0 0 54 21" version="1.1" xmlns="http://www.w3.org/2000/svg" xmlns:xlink="http://www.w3.org/1999/xlink">
    <!-- Generator: Sketch 43.1 (39012) - http://www.bohemiancoding.com/sketch -->
    <title>logo-app-bar</title>
    <desc>Created with Sketch.</desc>
    <defs></defs>
    <g id="blue" stroke="none" stroke-width="1" fill="none" fill-rule="evenodd">
        <g id="2.0-dashboard" transform="translate(-133.000000, -28.000000)" fill="#ABEC90">
            <g id="logo-app-bar" transform="translate(133.000000, 28.000000)">
                <path d="M42.69969,14.1689692 C42.69969,15.0396615 42.55929,15.8392769 42.27579,16.5667385 C41.99229,17.2947385 41.58513,17.9252769 41.05755,18.4513538 C40.52943,18.9779692 39.88737,19.3872 39.13137,19.6795846 C38.37537,19.9719692 37.52487,20.1184308 36.58041,20.1184308 C35.62893,20.1184308 34.77465,19.9719692 34.01865,19.6795846 C33.26319,19.3872 32.62113,18.9779692 32.09301,18.4513538 C31.56543,17.9252769 31.16097,17.2947385 30.88071,16.5667385 C30.60099,15.8392769 30.46059,15.0396615 30.46059,14.1689692 L30.46059,5.75012308 L33.76485,5.75012308 L33.76485,14.1528154 C33.76485,14.6530462 33.83019,15.0983538 33.95709,15.4914308 C34.08399,15.8845077 34.26651,16.2194308 34.50789,16.4951231 C34.74873,16.7718923 35.04519,16.9829692 35.39403,17.1288923 C35.74287,17.2753538 36.13707,17.3502 36.58041,17.3502 C37.02321,17.3502 37.42065,17.2753538 37.76949,17.1288923 C38.11833,16.9829692 38.41155,16.7751231 38.65239,16.5021231 C38.89377,16.2291231 39.07953,15.8942 39.20643,15.5011231 C39.33387,15.1080462 39.39543,14.6627385 39.39543,14.1625077 L39.39543,5.75012308 L42.69969,5.75012308 L42.69969,14.1689692 Z M17.967474,8.36257692 L17.967474,5.74996154 L29.287494,5.74996154 L29.287494,8.36257692 L25.279614,8.36257692 L25.279614,19.9621154 L21.975354,19.9621154 L21.975354,8.36257692 L17.967474,8.36257692 Z M12.98214,19.9623846 L12.98214,5.75023077 L16.30584,5.75023077 L16.30584,19.9623846 L12.98214,19.9623846 Z M53.53101,13.8895077 C53.71353,14.3084308 53.80479,14.8156615 53.80479,15.4068923 C53.80479,16.0632769 53.69085,16.6771231 53.46243,17.2495077 C53.23455,17.8208154 52.90515,18.3215846 52.47207,18.7469692 C52.03845,19.1728923 51.50439,19.5072769 50.86881,19.7512 C50.23323,19.9951231 49.51017,20.1184308 48.70179,20.1184308 C48.25845,20.1184308 47.80917,20.0726615 47.34963,19.9848923 C46.89009,19.8938923 46.44351,19.7673538 46.01367,19.6047385 C45.58329,19.4426615 45.17937,19.2477385 44.80137,19.0232 C44.42337,18.7992 44.09451,18.5488154 43.81425,18.2758154 L44.79165,16.7099692 C44.86347,16.5931231 44.96445,16.4956615 45.09459,16.4240462 C45.22527,16.3524308 45.36513,16.3168923 45.51525,16.3168923 C45.71073,16.3168923 45.90945,16.3782769 46.10817,16.5021231 C46.30689,16.6254308 46.53153,16.7622 46.78263,16.9113538 C47.03373,17.0610462 47.32047,17.1972769 47.64609,17.3205846 C47.97171,17.4444308 48.35619,17.5058154 48.79953,17.5058154 C49.39947,17.5058154 49.86495,17.3728154 50.19759,17.1095077 C50.52969,16.8462 50.69601,16.4305077 50.69601,15.8586615 C50.69601,15.5237385 50.60475,15.2539692 50.42223,15.0461231 C50.23971,14.8382769 50.00211,14.6659692 49.70565,14.5297385 C49.40919,14.3929692 49.07007,14.2728923 48.69207,14.1689692 C48.31407,14.0650462 47.92635,13.9514308 47.52891,13.8248923 C47.13147,13.6978154 46.74375,13.5422 46.36575,13.3532 C45.98775,13.1679692 45.65187,12.9245846 45.35541,12.6225077 C45.05895,12.3198923 44.81757,11.9429692 44.63505,11.4917385 C44.45253,11.0399692 44.36127,10.4810462 44.36127,9.8182 C44.36127,9.28566154 44.46927,8.76550769 44.68419,8.25881538 C44.89911,7.75158462 45.21555,7.29712308 45.63243,6.90027692 C46.04931,6.50396923 46.56123,6.18896923 47.16711,5.95150769 C47.77353,5.71458462 48.46743,5.59450769 49.24935,5.59450769 C49.68567,5.59450769 50.11281,5.63004615 50.52699,5.69843077 C50.94063,5.76627692 51.33159,5.86696923 51.70311,6.00373846 C52.07463,6.13673846 52.42293,6.29935385 52.74585,6.48458462 C53.06823,6.67304615 53.35497,6.88412308 53.60931,7.12158462 L52.78797,8.63896923 C52.69023,8.79458462 52.58925,8.91196923 52.48179,8.99004615 C52.37433,9.06435385 52.23393,9.10366154 52.06437,9.10366154 C51.91479,9.10366154 51.75495,9.05789231 51.58215,8.96366154 C51.40989,8.86943077 51.21387,8.76227692 50.99571,8.64543077 C50.77755,8.52858462 50.52699,8.42412308 50.24619,8.32989231 C49.96593,8.23566154 49.64679,8.1872 49.28823,8.1872 C48.66939,8.1872 48.20985,8.3202 47.90691,8.58350769 C47.60397,8.84681538 47.45061,9.20112308 47.45061,9.64912308 C47.45061,9.93504615 47.54187,10.1725077 47.72439,10.3642 C47.90691,10.5526615 48.14775,10.7152769 48.44475,10.8515077 C48.74121,10.9877385 49.07979,11.1115846 49.46103,11.2252 C49.84227,11.3388154 50.22999,11.4658923 50.62743,11.6053538 C51.02541,11.7448154 51.41637,11.9106615 51.79761,12.0991231 C52.17885,12.2875846 52.51743,12.5282769 52.81389,12.8206615 C53.11089,13.1130462 53.34849,13.4705846 53.53101,13.8895077 Z M0,8.36257692 L0,5.74996154 L11.32002,5.74996154 L11.32002,8.36257692 L7.31214,8.36257692 L7.31214,19.9621154 L4.00788,19.9621154 L4.00788,8.36257692 L0,8.36257692 Z M14.602032,0 C15.546492,0 16.312212,0.764076923 16.312212,1.70584615 C16.312212,2.64761538 15.546492,3.41115385 14.602032,3.41115385 C13.657572,3.41115385 12.891312,2.64761538 12.891312,1.70584615 C12.891312,0.764076923 13.657572,0 14.602032,0 Z" id="Combined-Shape"></path>
            </g>
        </g>
    </g>
</svg>