<?xml version="1.0" encoding="UTF-8"?>
<svg width="120px" height="120px" viewBox="0 0 120 120" version="1.1" xmlns="http://www.w3.org/2000/svg" xmlns:xlink="http://www.w3.org/1999/xlink">
    <!-- Generator: Sketch 43.1 (39012) - http://www.bohemiancoding.com/sketch -->
    <title>logo-negative</title>
    <desc>Created with Sketch.</desc>
    <defs></defs>
    <g id="blue" stroke="none" stroke-width="1" fill="none" fill-rule="evenodd">
        <g id="0.1-start-screen" transform="translate(-100.000000, -115.000000)">
            <g id="logo-negative" transform="translate(100.000000, 115.000000)">
                <path d="M59.9808,0 C26.8542545,0 0.000436363636,26.8538182 0.000436363636,59.9825455 C0.000436363636,93.1090909 26.8542545,119.962909 59.9808,119.962909 C93.1073455,119.962909 119.963345,93.1090909 119.963345,59.9825455 C119.963345,26.8538182 93.1073455,0 59.9808,0" id="Fill-1" fill="#004E6F"></path>
                <path d="M59.9808,14.4560727 C34.8375273,14.4560727 14.4549818,34.8386182 14.4549818,59.9818909 C14.4549818,85.1251636 34.8375273,105.507709 59.9808,105.507709 C85.1240727,105.507709 105.506618,85.1251636 105.506618,59.9818909 C105.506618,34.8386182 85.1240727,14.4560727 59.9808,14.4560727" id="Fill-4" fill="#00858A"></path>
                <path d="M59.9808,27.9726545 C42.3037091,27.9726545 27.9735273,42.3028364 27.9735273,59.9821091 C27.9735273,77.6592 42.3037091,91.9893818 59.9808,91.9893818 C77.6600727,91.9893818 91.9902545,77.6592 91.9902545,59.9821091 C91.9902545,42.3028364 77.6600727,27.9726545 59.9808,27.9726545" id="Fill-6" fill="#00B8A3"></path>
                <path d="M59.9808,40.6315636 C49.2942545,40.6315636 40.6302545,49.2955636 40.6302545,59.9821091 C40.6302545,70.6686545 49.2942545,79.3326545 59.9808,79.3326545 C70.6673455,79.3326545 79.3313455,70.6686545 79.3313455,59.9821091 C79.3313455,49.2955636 70.6673455,40.6315636 59.9808,40.6315636" id="Fill-8" fill="#0FCDA4"></path>
                <path d="M65.1877091,77.6653091 C65.1877091,78.6078545 65.2749818,79.3540364 65.4517091,79.9125818 C65.6153455,80.4711273 65.8553455,80.8987636 66.1629818,81.1954909 C66.4815273,81.5009455 66.8437091,81.6994909 67.2495273,81.7976727 C67.6531636,81.8849455 68.0917091,81.9394909 68.5629818,81.9394909 L71.3273455,81.9394909 L71.3273455,85.4369455 L48.6146182,85.4369455 L48.6146182,81.9394909 L51.3768,81.9394909 C51.8698909,81.9394909 52.3193455,81.8849455 52.7251636,81.7976727 C53.1418909,81.6994909 53.4909818,81.5009455 53.7877091,81.1954909 C54.0844364,80.8987636 54.3244364,80.4711273 54.4989818,79.9125818 C54.6648,79.3540364 54.7520727,78.6078545 54.7520727,77.6653091 L54.7520727,42.4878545 L49.4895273,42.4878545 C48.5142545,42.4878545 47.6938909,42.5991273 47.0240727,42.8173091 C46.3673455,43.0267636 45.8306182,43.3322182 45.4117091,43.7271273 C44.9971636,44.1220364 44.6786182,44.6151273 44.4822545,45.1954909 C44.2728,45.7671273 44.1309818,46.4238545 44.0437091,47.1591273 L43.5920727,51.2369455 L39.1651636,51.2369455 L39.5164364,38.4776727 L80.4800727,38.4776727 L80.7964364,51.2369455 L76.4022545,51.2369455 L75.9200727,47.1591273 C75.8306182,46.4238545 75.6888,45.7671273 75.4815273,45.1954909 C75.2829818,44.6151273 74.9666182,44.1220364 74.5498909,43.7271273 C74.1331636,43.3322182 73.5964364,43.0267636 72.9266182,42.8173091 C72.2698909,42.5991273 71.4364364,42.4878545 70.4611636,42.4878545 L65.1877091,42.4878545 L65.1877091,77.6653091 Z" id="Fill-10" fill="#ABEC90"></path>
                <path d="M65.1877091,77.6653091 C65.1877091,78.6078545 65.2749818,79.3540364 65.4517091,79.9125818 C65.6153455,80.4711273 65.8553455,80.8987636 66.1629818,81.1954909 C66.4815273,81.5009455 66.8437091,81.6994909 67.2495273,81.7976727 C67.6531636,81.8849455 68.0917091,81.9394909 68.5629818,81.9394909 L71.3273455,81.9394909 L71.3273455,85.4369455 L48.6146182,85.4369455 L48.6146182,81.9394909 L51.3768,81.9394909 C51.8698909,81.9394909 52.3193455,81.8849455 52.7251636,81.7976727 C53.1418909,81.6994909 53.4909818,81.5009455 53.7877091,81.1954909 C54.0844364,80.8987636 54.3244364,80.4711273 54.4989818,79.9125818 C54.6648,79.3540364 54.7520727,78.6078545 54.7520727,77.6653091 L54.7520727,42.4878545 L49.4895273,42.4878545 C48.5142545,42.4878545 47.6938909,42.5991273 47.0240727,42.8173091 C46.3673455,43.0267636 45.8306182,43.3322182 45.4117091,43.7271273 C44.9971636,44.1220364 44.6786182,44.6151273 44.4822545,45.1954909 C44.2728,45.7671273 44.1309818,46.4238545 44.0437091,47.1591273 L43.5920727,51.2369455 L39.1651636,51.2369455 L39.5164364,38.4776727 L80.4800727,38.4776727 L80.7964364,51.2369455 L76.4022545,51.2369455 L75.9200727,47.1591273 C75.8306182,46.4238545 75.6888,45.7671273 75.4815273,45.1954909 C75.2829818,44.6151273 74.9666182,44.1220364 74.5498909,43.7271273 C74.1331636,43.3322182 73.5964364,43.0267636 72.9266182,42.8173091 C72.2698909,42.5991273 71.4364364,42.4878545 70.4611636,42.4878545 L65.1877091,42.4878545 L65.1877091,77.6653091 Z M66.7346182,77.6653091 C66.7346182,78.4551273 66.7978909,79.0485818 66.9244364,79.4544 L66.9440727,79.5198545 C66.9920727,79.6769455 67.0422545,79.8056727 67.0946182,79.9016727 L67.0989818,79.8994909 C67.1404364,79.9758545 67.1862545,80.0391273 67.2320727,80.0827636 C67.2931636,80.1416727 67.3564364,80.1896727 67.4153455,80.2224 L67.4153455,80.2224 C67.4698909,80.2507636 67.5222545,80.2725818 67.5746182,80.2900364 L67.5746182,80.2878545 C67.7360727,80.3227636 67.8975273,80.3511273 68.0502545,80.3685818 C68.1986182,80.3838545 68.3688,80.3947636 68.5629818,80.3947636 L71.3273455,80.3947636 C72.1804364,80.3947636 72.8720727,81.0864 72.8720727,81.9394909 L72.8720727,85.4369455 C72.8720727,86.2900364 72.1804364,86.9838545 71.3273455,86.9838545 L48.6146182,86.9838545 C47.7593455,86.9838545 47.0677091,86.2900364 47.0677091,85.4369455 L47.0677091,81.9394909 C47.0677091,81.0864 47.7593455,80.3947636 48.6146182,80.3947636 L51.3768,80.3947636 C51.5840727,80.3947636 51.7629818,80.3838545 51.9135273,80.3685818 L51.9331636,80.3664 L51.9484364,80.3642182 C52.0837091,80.3489455 52.2255273,80.3249455 52.3673455,80.2944 L52.3673455,80.2944 C52.4371636,80.2769455 52.4982545,80.2551273 52.5462545,80.2267636 L52.5789818,80.2114909 C52.6117091,80.1874909 52.6444364,80.1591273 52.6771636,80.1264 L52.6968,80.1045818 L52.6946182,80.1024 C52.7491636,80.0456727 52.8015273,79.9758545 52.8451636,79.8994909 C52.9084364,79.7838545 52.9695273,79.6354909 53.0262545,79.4544 L53.0306182,79.4391273 C53.0829818,79.2514909 53.1244364,79.0224 53.1549818,78.7518545 C53.1877091,78.4551273 53.2051636,78.0929455 53.2051636,77.6653091 L53.2051636,44.0347636 L49.4895273,44.0347636 C49.0466182,44.0347636 48.6626182,44.0565818 48.3418909,44.1002182 C48.0364364,44.1394909 47.7549818,44.2027636 47.5018909,44.2856727 L47.4080727,44.3118545 C47.2269818,44.3751273 47.0546182,44.4536727 46.8888,44.5474909 L46.8058909,44.5889455 C46.6858909,44.6631273 46.5768,44.7504 46.4764364,44.8442182 C46.3542545,44.9598545 46.2495273,45.0842182 46.1666182,45.2194909 C46.0793455,45.3569455 46.0029818,45.5162182 45.9418909,45.6929455 L45.9135273,45.7714909 C45.8371636,45.9874909 45.7738909,46.2144 45.7215273,46.4478545 C45.6648,46.6965818 45.6168,46.9976727 45.5775273,47.3402182 L45.5688,47.3947636 L45.1258909,51.4049455 C45.0408,52.1947636 44.3709818,52.7794909 43.5920727,52.7794909 L43.5920727,52.7816727 L39.1651636,52.7816727 C38.3120727,52.7816727 37.6182545,52.0900364 37.6182545,51.2369455 C37.6182545,51.1780364 37.6204364,51.1191273 37.6269818,51.0624 L37.9760727,38.4340364 C37.9978909,37.5984 38.6829818,36.9373091 39.5164364,36.9373091 L39.5164364,36.9307636 L80.4800727,36.9307636 C81.3331636,36.9307636 82.0248,37.6224 82.0248,38.4776727 L82.0226182,38.5736727 L82.3368,51.1998545 C82.3564364,52.0507636 81.6844364,52.7554909 80.8335273,52.7773091 L80.7964364,52.7773091 L80.7964364,52.7816727 L76.4022545,52.7816727 C75.5840727,52.7816727 74.9142545,52.1467636 74.8597091,51.3438545 L74.3862545,47.3402182 C74.3448,46.9976727 74.2968,46.6965818 74.2422545,46.4478545 C74.1877091,46.2056727 74.1178909,45.9656727 74.0306182,45.7278545 L74.0066182,45.6536727 C73.9498909,45.4944 73.8778909,45.3482182 73.7949818,45.2194909 C73.7120727,45.0842182 73.6073455,44.9598545 73.4851636,44.8442182 L73.4306182,44.7896727 C73.3346182,44.7089455 73.2168,44.6282182 73.0771636,44.5496727 L72.9942545,44.4994909 C72.8458909,44.4253091 72.6713455,44.3554909 72.4684364,44.2922182 L72.3680727,44.2573091 C72.1498909,44.1896727 71.8968,44.1373091 71.6153455,44.1002182 C71.2924364,44.0565818 70.9062545,44.0347636 70.4611636,44.0347636 L66.7346182,44.0347636 L66.7346182,77.6653091 Z" id="Fill-12" fill="#00B8A3"></path>
                <path d="M19.2283636,61.4611636 C18.5454545,61.4611636 17.9912727,60.9069818 17.9912727,60.2240727 C17.9912727,59.5411636 18.5454545,58.9869818 19.2283636,58.9869818 L22.4661818,58.9869818 C23.1512727,58.9869818 23.7054545,59.5411636 23.7054545,60.2240727 C23.7054545,60.9069818 23.1512727,61.4611636 22.4661818,61.4611636 L19.2283636,61.4611636 Z M60.0096,18.2072727 C60.6925091,18.2072727 61.2466909,18.7614545 61.2466909,19.4443636 L61.2466909,22.68 C61.2466909,23.3629091 60.6925091,23.9170909 60.0096,23.9170909 C59.3266909,23.9170909 58.7725091,23.3629091 58.7725091,22.68 L58.7725091,19.4443636 C58.7725091,18.7614545 59.3266909,18.2072727 60.0096,18.2072727 Z M100.788873,58.9874182 C101.471782,58.9874182 102.025964,59.5416 102.025964,60.2245091 C102.025964,60.9074182 101.471782,61.4616 100.788873,61.4616 L97.5510545,61.4616 C96.8659636,61.4616 96.3117818,60.9074182 96.3117818,60.2245091 C96.3117818,59.5416 96.8659636,58.9874182 97.5510545,58.9874182 L100.788873,58.9874182 Z M60.0096,96.5269091 C60.6925091,96.5269091 61.2466909,97.0810909 61.2466909,97.764 L61.2466909,101.004 C61.2466909,101.686909 60.6925091,102.241091 60.0096,102.241091 C59.3266909,102.241091 58.7725091,101.686909 58.7725091,101.004 L58.7725091,97.764 C58.7725091,97.0810909 59.3266909,96.5269091 60.0096,96.5269091 Z M20.3000727,50.8653818 C19.6389818,50.6886545 19.2484364,50.0101091 19.4251636,49.3512 C19.6018909,48.6922909 20.2717091,48.2930182 20.9393455,48.4741091 L24.0658909,49.3119273 C24.7248,49.4886545 25.1175273,50.1672 24.9408,50.8261091 C24.7924364,51.3802909 24.2928,51.7446545 23.7451636,51.7446545 C23.6404364,51.7446545 23.5313455,51.7315636 23.4266182,51.7032 L20.3000727,50.8653818 Z M70.8868364,19.6389818 C71.5457455,19.8157091 71.9362909,20.4942545 71.7595636,21.1531636 L70.9217455,24.2797091 C70.7712,24.8338909 70.2737455,25.1960727 69.7261091,25.1960727 C69.6213818,25.1960727 69.5122909,25.1829818 69.4032,25.1546182 C68.7464727,24.9778909 68.3537455,24.2993455 68.5304727,23.6382545 L69.3704727,20.5117091 C69.5472,19.8549818 70.2082909,19.4600727 70.8868364,19.6389818 Z M99.7191273,69.5842909 C100.380218,69.7610182 100.770764,70.4395636 100.594036,71.1006545 C100.445673,71.6526545 99.9460364,72.0170182 99.4005818,72.0170182 C99.2958545,72.0170182 99.1867636,72.0039273 99.0798545,71.9755636 L95.9511273,71.1355636 C95.2922182,70.9588364 94.8994909,70.2802909 95.0762182,69.6213818 C95.2529455,68.9646545 95.9227636,68.5653818 96.5904,68.7464727 L99.7191273,69.5842909 Z M50.6133818,95.2911273 C51.2744727,95.4678545 51.6650182,96.1485818 51.4882909,96.8053091 L50.6504727,99.9340364 C50.4999273,100.488218 50.0024727,100.852582 49.4548364,100.852582 C49.3501091,100.852582 49.2410182,100.837309 49.1341091,100.808945 C48.4752,100.632218 48.0824727,99.9536727 48.2592,99.2947636 L49.0992,96.1660364 C49.2759273,95.5071273 49.9501091,95.1165818 50.6133818,95.2911273 Z M24.0757091,40.9053818 C23.4844364,40.5650182 23.2815273,39.8079273 23.6218909,39.2166545 C23.9622545,38.6253818 24.7215273,38.4202909 25.3106182,38.7650182 L28.1142545,40.3817455 C28.7055273,40.7242909 28.9084364,41.4792 28.5680727,42.0726545 C28.3368,42.4675636 27.9222545,42.6901091 27.4924364,42.6901091 C27.2851636,42.6901091 27.0713455,42.6355636 26.8771636,42.5242909 L24.0757091,40.9053818 Z M78.1629818,28.7808 C77.5717091,28.4404364 77.3688,27.6833455 77.7091636,27.0920727 L79.3280727,24.2884364 C79.6706182,23.6993455 80.4255273,23.4920727 81.0189818,23.8368 C81.6102545,24.1771636 81.8131636,24.9342545 81.4728,25.5255273 L79.8517091,28.3291636 C79.6226182,28.7262545 79.2080727,28.9466182 78.7782545,28.9466182 C78.5709818,28.9466182 78.3571636,28.8942545 78.1629818,28.7808 Z M95.9437091,79.5432 C96.5349818,79.8857455 96.7378909,80.6428364 96.3975273,81.2319273 C96.1684364,81.6312 95.7517091,81.8537455 95.3240727,81.8537455 C95.1146182,81.8537455 94.9008,81.7992 94.7088,81.6857455 L91.9008,80.0646545 C91.3095273,79.7242909 91.1066182,78.9672 91.4469818,78.3759273 C91.7917091,77.7846545 92.5466182,77.5817455 93.1378909,77.9221091 L95.9437091,79.5432 Z M41.8605818,91.6647273 C42.4518545,92.0072727 42.6525818,92.7643636 42.3122182,93.3556364 L40.6911273,96.1614545 C40.4598545,96.5563636 40.0453091,96.7789091 39.6176727,96.7789091 C39.4082182,96.7789091 39.1944,96.7243636 38.9980364,96.6130909 C38.4089455,96.2683636 38.2060364,95.5134545 38.5464,94.92 L40.1696727,92.1163636 C40.5122182,91.5294545 41.2627636,91.3221818 41.8605818,91.6647273 Z M32.5856727,34.5517091 L30.2969455,32.2629818 C29.8147636,31.7808 29.8147636,30.9975273 30.2969455,30.5131636 C30.7834909,30.0309818 31.5624,30.0309818 32.0489455,30.5131636 L34.3376727,32.8018909 C34.8176727,33.2840727 34.8176727,34.0695273 34.3376727,34.5517091 C34.0933091,34.7938909 33.7791273,34.9138909 33.4605818,34.9138909 C33.1442182,34.9138909 32.8278545,34.7938909 32.5856727,34.5517091 Z M85.6821818,34.5517091 C85.2,34.0695273 85.2,33.2840727 85.6821818,32.8018909 L87.9709091,30.5131636 C88.4552727,30.0309818 89.2363636,30.0309818 89.7229091,30.5131636 C90.2029091,30.9975273 90.2029091,31.7808 89.7229091,32.2629818 L87.4341818,34.5517091 C87.1898182,34.7938909 86.8756364,34.9138909 86.5570909,34.9138909 C86.2407273,34.9138909 85.9243636,34.7938909 85.6821818,34.5517091 Z M87.4293818,85.8927273 L89.7224727,88.1858182 C90.2024727,88.668 90.2024727,89.4534545 89.7224727,89.9378182 C89.4781091,90.1778182 89.1639273,90.3 88.8453818,90.3 C88.5290182,90.3 88.2126545,90.1778182 87.9704727,89.9378182 L85.6773818,87.6447273 C85.1973818,87.1603636 85.1973818,86.3770909 85.6773818,85.8927273 C86.1639273,85.4105455 86.9428364,85.4105455 87.4293818,85.8927273 Z M34.3370182,85.8927273 C34.8213818,86.3770909 34.8213818,87.1603636 34.3392,87.6425455 L32.0482909,89.9356364 C31.8061091,90.1778182 31.4897455,90.3 31.1733818,90.3 C30.8548364,90.3 30.5406545,90.1778182 30.2984727,89.9378182 C29.8162909,89.4534545 29.8162909,88.668 30.2962909,88.188 L32.5872,85.8949091 C33.0737455,85.4083636 33.8548364,85.4105455 34.3370182,85.8927273 Z M40.1666182,28.3291636 L38.5477091,25.5255273 C38.2073455,24.9342545 38.4080727,24.1771636 39.0015273,23.8368 C39.5906182,23.4920727 40.3477091,23.6993455 40.6902545,24.2884364 L42.3091636,27.0920727 C42.6517091,27.6833455 42.4488,28.4404364 41.8553455,28.7808 C41.6633455,28.8942545 41.4495273,28.9466182 41.2400727,28.9466182 C40.8124364,28.9466182 40.3957091,28.7262545 40.1666182,28.3291636 Z M91.4522182,42.0698182 C91.1118545,41.4785455 91.3147636,40.7214545 91.9060364,40.3810909 L94.7074909,38.7621818 C95.3009455,38.4218182 96.0536727,38.6247273 96.3984,39.216 C96.7387636,39.8072727 96.5358545,40.5643636 95.9445818,40.9069091 L93.1409455,42.5236364 C92.9489455,42.6349091 92.7351273,42.6894545 92.5256727,42.6894545 C92.0980364,42.6894545 91.6813091,42.4669091 91.4522182,42.0698182 Z M79.8506182,92.1163636 L81.4717091,94.9221818 C81.8120727,95.5134545 81.6113455,96.2683636 81.0178909,96.6130909 C80.8237091,96.7243636 80.6120727,96.7789091 80.4026182,96.7789091 C79.9749818,96.7789091 79.5582545,96.5563636 79.3291636,96.1592727 L77.7080727,93.3512727 C77.3655273,92.7621818 77.5684364,92.0050909 78.1618909,91.6625455 C78.7531636,91.3178182 79.5080727,91.5250909 79.8506182,92.1163636 Z M28.5713455,78.3754909 C28.9117091,78.9667636 28.7088,79.7238545 28.1175273,80.0642182 L25.3117091,81.6874909 C25.1175273,81.7987636 24.9037091,81.8533091 24.6964364,81.8533091 C24.2666182,81.8533091 23.8520727,81.6307636 23.6208,81.2336727 C23.2804364,80.6424 23.4833455,79.8853091 24.0746182,79.5427636 L26.8826182,77.9216727 C27.4738909,77.5813091 28.2309818,77.7842182 28.5713455,78.3754909 Z M49.0963636,24.2797091 L48.2585455,21.1531636 C48.0818182,20.4942545 48.4745455,19.8157091 49.1356364,19.6389818 C49.7989091,19.4622545 50.4730909,19.8549818 50.6498182,20.5138909 L51.4876364,23.6404364 C51.6643636,24.2993455 51.2716364,24.9778909 50.6105455,25.1546182 C50.5058182,25.1851636 50.3967273,25.1960727 50.292,25.1960727 C49.7443636,25.1960727 49.2447273,24.8317091 49.0963636,24.2797091 Z M95.0786182,50.8280727 C94.9018909,50.1669818 95.2946182,49.4906182 95.9535273,49.3138909 L99.0800727,48.4738909 C99.7520727,48.2884364 100.417527,48.6920727 100.594255,49.3488 C100.770982,50.0098909 100.380436,50.6862545 99.7193455,50.8629818 L96.5928,51.7008 C96.4880727,51.7313455 96.3789818,51.7444364 96.2742545,51.7444364 C95.7266182,51.7444364 95.2269818,51.3800727 95.0786182,50.8280727 Z M70.9208727,96.1666909 L71.7586909,99.2954182 C71.9354182,99.9543273 71.5426909,100.632873 70.8816,100.8096 C70.7768727,100.837964 70.6677818,100.851055 70.5630545,100.851055 C70.0154182,100.851055 69.5157818,100.486691 69.3674182,99.9346909 L68.5296,96.8059636 C68.3528727,96.1448727 68.7456,95.4685091 69.4066909,95.2917818 C70.0699636,95.1194182 70.7441455,95.5077818 70.9208727,96.1666909 Z M24.9427636,69.6196364 C25.1194909,70.2807273 24.7267636,70.9592727 24.0678545,71.136 L20.9391273,71.9738182 C20.8322182,72.0021818 20.7231273,72.0152727 20.6205818,72.0152727 C20.0729455,72.0152727 19.5733091,71.6509091 19.4249455,71.0989091 C19.2482182,70.4378182 19.6387636,69.7614545 20.2998545,69.5825455 L23.4285818,68.7447273 C24.0918545,68.568 24.7660364,68.9629091 24.9427636,69.6196364 Z M19.4201455,56.1026182 C18.7416,56.0131636 18.2659636,55.3913455 18.3554182,54.7149818 C18.4470545,54.0342545 19.0797818,53.5564364 19.7430545,53.6502545 L22.9525091,54.0757091 C23.6310545,54.1651636 24.1066909,54.7869818 24.0172364,55.4633455 C23.9343273,56.0851636 23.4019636,56.5389818 22.7932364,56.5389818 C22.7386909,56.5389818 22.6841455,56.5346182 22.6296,56.5280727 L19.4201455,56.1026182 Z M65.5195636,18.5705455 C66.1981091,18.66 66.6737455,19.2818182 66.5842909,19.9581818 L66.1610182,23.1676364 C66.0781091,23.7894545 65.5479273,24.2432727 64.9348364,24.2432727 C64.8802909,24.2432727 64.8279273,24.2389091 64.7712,24.2323636 C64.0948364,24.1429091 63.6170182,23.5210909 63.7064727,22.8425455 L64.1297455,19.6352727 C64.2213818,18.9567273 64.8519273,18.4832727 65.5195636,18.5705455 Z M100.599055,64.3461818 C101.2776,64.4356364 101.753236,65.0574545 101.663782,65.7338182 C101.580873,66.3556364 101.050691,66.8094545 100.439782,66.8094545 C100.383055,66.8094545 100.330691,66.8050909 100.276145,66.7985455 L97.0645091,66.3752727 C96.3859636,66.2858182 95.9103273,65.664 95.9997818,64.9854545 C96.0892364,64.3069091 96.7241455,63.8334545 97.3874182,63.9229091 L100.599055,64.3461818 Z M55.2475636,96.2136 C55.9261091,96.3030545 56.4017455,96.9248727 56.3122909,97.6034182 L55.8890182,100.812873 C55.8061091,101.436873 55.2759273,101.890691 54.6628364,101.890691 C54.6082909,101.890691 54.5559273,101.886327 54.4992,101.879782 C53.8228364,101.790327 53.3450182,101.168509 53.4344727,100.489964 L53.8577455,97.2783273 C53.9493818,96.6019636 54.5799273,96.1394182 55.2475636,96.2136 Z M21.8683636,45.7368 C21.2378182,45.4749818 20.9389091,44.7506182 21.2007273,44.1200727 C21.4625455,43.4895273 22.1869091,43.1884364 22.8196364,43.4524364 L25.8087273,44.6938909 C26.4392727,44.9557091 26.736,45.6800727 26.4741818,46.3106182 C26.2778182,46.7862545 25.8174545,47.0720727 25.3330909,47.0720727 C25.176,47.0720727 25.0123636,47.0437091 24.8574545,46.9782545 L21.8683636,45.7368 Z M76.1155636,21.4160727 C76.7461091,21.6778909 77.0450182,22.4022545 76.7832,23.0328 L75.5395636,26.0218909 C75.3432,26.4975273 74.8828364,26.7833455 74.3984727,26.7833455 C74.2413818,26.7833455 74.0777455,26.7549818 73.9228364,26.6895273 C73.2922909,26.4277091 72.9933818,25.7033455 73.2552,25.0728 L74.4988364,22.0837091 C74.7606545,21.4531636 75.4828364,21.1520727 76.1155636,21.4160727 Z M98.1488727,74.7117818 C98.7816,74.9736 99.0805091,75.6979636 98.8186909,76.3285091 C98.6223273,76.8041455 98.1597818,77.0899636 97.6754182,77.0899636 C97.5183273,77.0899636 97.3568727,77.0616 97.2019636,76.9961455 L94.2106909,75.7546909 C93.5779636,75.4928727 93.2812364,74.7685091 93.5430545,74.1379636 C93.8026909,73.5074182 94.5336,73.2063273 95.1576,73.4703273 L98.1488727,74.7117818 Z M46.0941818,93.7570909 C46.7269091,94.0167273 47.0258182,94.7410909 46.764,95.3716364 L45.5225455,98.3629091 C45.3261818,98.8407273 44.868,99.1287273 44.3814545,99.1287273 C44.2243636,99.1287273 44.0607273,99.096 43.908,99.0327273 C43.2752727,98.7730909 42.9763636,98.0487273 43.2381818,97.4181818 L44.4796364,94.4269091 C44.7370909,93.7941818 45.468,93.4930909 46.0941818,93.7570909 Z M29.4855273,38.3314909 L26.9175273,36.3591273 C26.3764364,35.9424 26.2738909,35.1656727 26.6928,34.6245818 C27.1095273,34.0813091 27.8862545,33.9831273 28.4273455,34.3976727 L30.9931636,36.3700364 C31.5342545,36.7867636 31.6368,37.5613091 31.2200727,38.1045818 C30.9778909,38.4209455 30.6113455,38.5867636 30.2404364,38.5867636 C29.9764364,38.5867636 29.7124364,38.5038545 29.4855273,38.3314909 Z M82.8824727,31.6902545 C82.6184727,31.6902545 82.3544727,31.6073455 82.1275636,31.4349818 C81.5864727,31.0182545 81.4839273,30.2415273 81.9028364,29.6982545 L83.8752,27.1324364 C84.2919273,26.5913455 85.0686545,26.4931636 85.6097455,26.9055273 C86.1508364,27.3222545 86.2533818,28.0989818 85.8366545,28.6422545 L83.8621091,31.2080727 C83.6199273,31.5244364 83.2533818,31.6902545 82.8824727,31.6902545 Z M90.5317091,82.1149091 L93.1018909,84.0894545 C93.6429818,84.5061818 93.7455273,85.2829091 93.3266182,85.824 C93.0844364,86.1425455 92.7178909,86.3083636 92.3469818,86.3083636 C92.0829818,86.3083636 91.8189818,86.2232727 91.5920727,86.0509091 L89.0240727,84.0741818 C88.4829818,83.6596364 88.3804364,82.8829091 88.7971636,82.3418182 C89.2138909,81.7963636 89.9906182,81.7025455 90.5317091,82.1149091 Z M36.1566545,89.2378909 C36.5712,88.6968 37.3501091,88.5986182 37.8912,89.0109818 C38.4322909,89.4277091 38.5348364,90.2022545 38.1159273,90.7455273 L36.1435636,93.3157091 C35.9013818,93.6320727 35.5348364,93.8000727 35.1639273,93.8000727 C34.8999273,93.8000727 34.6359273,93.7149818 34.4090182,93.5426182 C33.8679273,93.1258909 33.7653818,92.3513455 34.1842909,91.8080727 L36.1566545,89.2378909 Z M36.1906909,31.1766545 L34.2226909,28.6064727 C33.8059636,28.0653818 33.9085091,27.2886545 34.4517818,26.8719273 C34.9863273,26.4595636 35.7696,26.5555636 36.1863273,27.1032 L38.1543273,29.6733818 C38.5710545,30.2144727 38.4685091,30.9912 37.9252364,31.4057455 C37.7005091,31.5781091 37.4365091,31.6610182 37.1725091,31.6610182 C36.8016,31.6610182 36.4328727,31.4952 36.1906909,31.1766545 Z M88.8270545,38.1397091 C88.4125091,37.5964364 88.5128727,36.8218909 89.0561455,36.4051636 L91.6263273,34.4371636 C92.1630545,34.0226182 92.9441455,34.1186182 93.3608727,34.6662545 C93.7776,35.2095273 93.6750545,35.9862545 93.1317818,36.4008 L90.5616,38.3688 C90.3368727,38.5411636 90.0728727,38.6240727 89.8088727,38.6240727 C89.4379636,38.6240727 89.0692364,38.4582545 88.8270545,38.1397091 Z M83.8263273,89.2697455 L85.7965091,91.8421091 C86.2132364,92.3832 86.1106909,93.1599273 85.5674182,93.5766545 C85.3426909,93.7490182 85.0786909,93.8319273 84.8146909,93.8319273 C84.4437818,93.8319273 84.0772364,93.6639273 83.8328727,93.3453818 L81.8626909,90.7730182 C81.4459636,90.2319273 81.5485091,89.4552 82.0917818,89.0406545 C82.6285091,88.6217455 83.4052364,88.7242909 83.8263273,89.2697455 Z M31.1943273,82.3066909 C31.6088727,82.8477818 31.5085091,83.6245091 30.9652364,84.0412364 L28.3928727,86.0114182 C28.1681455,86.1837818 27.9041455,86.2666909 27.6401455,86.2666909 C27.2692364,86.2666909 26.9026909,86.0986909 26.6583273,85.7823273 C26.2416,85.2412364 26.3441455,84.4623273 26.8874182,84.0477818 L29.4597818,82.0776 C29.9943273,81.6608727 30.7732364,81.7612364 31.1943273,82.3066909 Z M45.5720727,22.0660364 L46.8069818,25.0573091 C47.0688,25.6878545 46.7677091,26.4122182 46.1371636,26.6718545 C45.9800727,26.7373091 45.8208,26.7656727 45.6637091,26.7656727 C45.1771636,26.7656727 44.7168,26.4776727 44.5204364,26.0020364 L43.2833455,23.0107636 C43.0237091,22.3802182 43.3248,21.6558545 43.9553455,21.3940364 C44.5880727,21.1322182 45.3102545,21.4333091 45.5720727,22.0660364 Z M93.5594182,46.3514182 C93.2997818,45.7186909 93.6008727,44.9965091 94.2314182,44.7346909 L97.2226909,43.4976 C97.8532364,43.2357818 98.5754182,43.5368727 98.8394182,44.1696 C99.0990545,44.8001455 98.7979636,45.5245091 98.1674182,45.7841455 L95.1761455,47.0212364 C95.0212364,47.0845091 94.8619636,47.1150545 94.7026909,47.1150545 C94.2183273,47.1150545 93.7579636,46.8270545 93.5594182,46.3514182 Z M75.4954909,94.4430545 L76.7325818,97.4365091 C76.9944,98.0670545 76.6954909,98.7914182 76.0649455,99.0510545 C75.9078545,99.1165091 75.7485818,99.1470545 75.5914909,99.1470545 C75.1049455,99.1470545 74.6445818,98.8590545 74.4504,98.3834182 L73.2111273,95.3899636 C72.9493091,94.7594182 73.2504,94.0350545 73.8809455,93.7732364 C74.5136727,93.5092364 75.2358545,93.8103273 75.4954909,94.4430545 Z M26.4619636,74.0971636 C26.7216,74.7277091 26.4205091,75.4520727 25.7899636,75.7117091 L22.7965091,76.9488 C22.6416,77.0120727 22.4823273,77.0426182 22.3252364,77.0426182 C21.8386909,77.0426182 21.3783273,76.7546182 21.1797818,76.2789818 C20.9201455,75.6462545 21.2212364,74.9240727 21.8517818,74.6622545 L24.8452364,73.4251636 C25.4757818,73.1611636 26.1979636,73.4644364 26.4619636,74.0971636 Z M54.5528727,18.5631273 C55.2096,18.4736727 55.8488727,18.9514909 55.9405091,19.6278545 L56.3594182,22.8373091 C56.4466909,23.5158545 55.9688727,24.1354909 55.2925091,24.2249455 C55.2379636,24.2314909 55.1834182,24.2358545 55.1310545,24.2358545 C54.5179636,24.2358545 53.9877818,23.7820364 53.9048727,23.1580364 L53.4859636,19.9507636 C53.3986909,19.2722182 53.8743273,18.6525818 54.5528727,18.5631273 Z M97.0749818,54.1208727 L100.284436,53.6997818 C100.945527,53.5994182 101.578255,54.0859636 101.669891,54.7645091 C101.757164,55.4430545 101.281527,56.0648727 100.602982,56.1521455 L97.3935273,56.5732364 C97.3411636,56.5797818 97.2866182,56.5841455 97.2320727,56.5841455 C96.6211636,56.5841455 96.0909818,56.1303273 96.0080727,55.5085091 C95.9208,54.8299636 96.3964364,54.2103273 97.0749818,54.1208727 Z M64.7269091,96.2201455 C65.3945455,96.1328727 66.0250909,96.6085091 66.1145455,97.2870545 L66.5334545,100.498691 C66.6207273,101.175055 66.1429091,101.796873 65.4665455,101.886327 C65.412,101.892873 65.3574545,101.897236 65.3050909,101.897236 C64.692,101.897236 64.1618182,101.443418 64.0789091,100.817236 L63.66,97.6077818 C63.5727273,96.9292364 64.0483636,96.3096 64.7269091,96.2201455 Z M19.7376,66.7483636 C19.6830545,66.7549091 19.6263273,66.7592727 19.5739636,66.7592727 C18.9630545,66.7592727 18.4306909,66.3054545 18.3477818,65.6836364 C18.2605091,65.0050909 18.7361455,64.3854545 19.4146909,64.296 L22.6241455,63.8749091 C23.3136,63.7832727 23.9223273,64.2610909 24.0139636,64.9396364 C24.1012364,65.616 23.6256,66.2378182 22.9492364,66.3272727 L19.7376,66.7483636 Z" id="Combined-Shape" fill="#ABEC90"></path>
            </g>
        </g>
    </g>
</svg>