<?xml version="1.0" encoding="UTF-8"?>
<svg width="176px" height="176px" viewBox="0 0 176 176" version="1.1" xmlns="http://www.w3.org/2000/svg" xmlns:xlink="http://www.w3.org/1999/xlink">
    <!-- Generator: Sketch 43.1 (39012) - http://www.bohemiancoding.com/sketch -->
    <title>push-notifications</title>
    <desc>Created with Sketch.</desc>
    <defs>
        <path d="M15.5,23.4 C15.5,16.5810739 19.8470061,10.7839959 25.9041082,8.66268817 C25.8575583,8.38209487 25.8333333,8.09389471 25.8333333,7.8 C25.8333333,4.9281193 28.1465288,2.6 31,2.6 C33.8534712,2.6 36.1666667,4.9281193 36.1666667,7.8 C36.1666667,8.09389471 36.1424417,8.38209487 36.0958918,8.66268817 C42.1529939,10.7839959 46.5,16.581074 46.5,23.4 C46.5,34.9555556 49.0833333,41.5999993 54.25,49.4 C59.4166667,57.2000007 2.58333333,57.2000007 7.75,49.4 C12.9166667,41.5999993 15.5,34.9555553 15.5,23.4 Z" id="path-1"></path>
        <path d="M22.4377145,58.942716 C23.1602951,60.9505785 25.0615291,62.3841872 27.2932435,62.3841872 C30.1467147,62.3841872 32.4599102,60.0404961 32.4599102,57.1494067 C32.4599102,56.6556283 32.3924336,56.1778177 32.2663131,55.7249242 C31.1600635,56.1501198 30.0192,56.5659407 28.8499383,56.9685498 C26.6456958,57.7275314 24.492074,58.3873801 22.4377145,58.942716 Z" id="path-2"></path>
    </defs>
    <g id="blue" stroke="none" stroke-width="1" fill="none" fill-rule="evenodd">
        <g id="0.5-welcome" transform="translate(-73.000000, -188.000000)">
            <g id="push-notifications" transform="translate(73.000000, 188.000000)">
                <circle id="Oval" fill="#004E6F" cx="88" cy="88" r="88"></circle>
                <g id="Group" transform="translate(52.000000, 23.000000)">
                    <rect id="Rectangle-5" stroke="#C1CBD7" stroke-width="1.5" x="0.75" y="0.75" width="68.5" height="128.5" rx="8"></rect>
                    <rect id="Rectangle-6" fill="#C1CBD7" x="30" y="6" width="10" height="2" rx="1"></rect>
                    <line id="Line-1" stroke="#C1CBD7" stroke-width="0.4" x1="0" x2="70" y1="12" y2="12"></line>
                    <line id="Line-2" stroke="#C1CBD7" stroke-width="0.4" x1="0" x2="70" y1="115" y2="115"></line>
                    <rect id="Rectangle-7" fill="#C1CBD7" x="27" y="118" width="16" height="7" rx="2" ry="2"></rect>
                </g>
                <rect id="Rectangle-2" fill="#ABEC90" x="56" y="37" width="62" height="14" rx="2"></rect>
                <g id="ic_request_w" transform="translate(107.000000, 40.000000)" fill="#004E6F">
                    <path d="M2,3 C2,2.12577871 2.56090401,1.38256358 3.34246557,1.11060105 C3.33645913,1.07462755 3.33333333,1.03767881 3.33333333,1 C3.33333333,0.631810167 3.63181017,0.333333333 4,0.333333333 C4.36818983,0.333333333 4.66666667,0.631810167 4.66666667,1 C4.66666667,1.03767881 4.66354087,1.07462755 4.65753443,1.11060105 C5.43909599,1.38256358 6,2.12577871 6,3 C6,4.48148149 6.33333333,5.33333324 7,6.33333333 C7.66666667,7.33333343 0.333333333,7.33333343 1,6.33333333 C1.66666667,5.33333324 2,4.48148145 2,3 Z" id="Oval-239"></path>
                    <path d="M3.35238014,7.32657338 C3.35237758,7.32734005 3.3523763,7.32810702 3.3523763,7.3288743 C3.3523763,7.69952679 3.65085314,8 4.01904297,8 C4.3872328,8 4.68570964,7.69952679 4.68570964,7.3288743 C4.68570964,7.32746201 4.6857053,7.32605074 4.68569665,7.3246405 C4.46547255,7.33615949 4.2359164,7.3422514 4,7.3422514 C3.77764742,7.3422514 3.56094475,7.33683986 3.35238014,7.32657338 Z" id="Oval-240"></path>
                </g>
                <g id="ic_request_w" transform="translate(121.828990, 88.030154) rotate(-20.000000) translate(-121.828990, -88.030154) translate(90.828990, 56.030154)">
                    <g id="Oval-239">
                        <use fill="#004E6F" fill-rule="evenodd" xlink:href="#path-1"></use>
                        <path stroke="#ABEC90" stroke-width="1.5" d="M16.25,23.4 C16.25,17.0286431 20.2719715,11.4298301 26.1520086,9.37053376 L26.7472077,9.16208417 L26.6439956,8.53994232 C26.6037361,8.29726624 26.5833333,8.05009348 26.5833333,7.8 C26.5833333,5.34125702 28.5618259,3.35 31,3.35 C33.4381741,3.35 35.4166667,5.34125702 35.4166667,7.8 C35.4166667,8.05009348 35.3962639,8.29726624 35.3560044,8.53994232 L35.2527923,9.16208417 L35.8479914,9.37053376 C41.7280285,11.4298301 45.75,17.0286432 45.75,23.4 C45.75,34.3483605 47.9188931,41.2001968 53.6247317,49.8141734 C54.0024356,50.3843845 53.874392,50.8007327 53.094674,51.3440202 C52.1764046,51.9838467 50.5279149,52.5694203 48.2793842,53.0543569 C43.9651695,53.9847959 37.6517117,54.5000006 31,54.5000006 C24.3482883,54.5000006 18.0348305,53.9847959 13.7206158,53.0543569 C11.4720851,52.5694203 9.82359542,51.9838467 8.90532605,51.3440202 C8.12560799,50.8007327 7.99756439,50.3843845 8.37526827,49.8141734 C14.0811068,41.2001969 16.25,34.3483603 16.25,23.4 L16.25,23.4 Z"></path>
                    </g>
                    <g id="Oval-240" transform="translate(27.450658, 59.049228) rotate(20.000000) translate(-27.450658, -59.049228) ">
                        <use fill="#004E6F" fill-rule="evenodd" xlink:href="#path-2"></use>
                        <path stroke="#ABEC90" stroke-width="1.5" d="M31.6922216,56.7447571 C31.6924027,56.7468181 31.6925824,56.7488794 31.6927607,56.7509409 L31.6922216,56.7447571 Z M31.6927607,56.7509409 C31.7041629,56.882741 31.7099102,57.0156466 31.7099102,57.1494067 C31.7099102,59.6284654 29.7302865,61.6341872 27.2932435,61.6341872 C25.7018076,61.6341872 24.2695441,60.7712082 23.4893183,59.4309458 C25.3231022,58.9163717 27.202061,58.329175 29.0941145,57.6776887 C29.9714449,57.3755996 30.8384469,57.0642152 31.6922216,56.7447571 L31.6927607,56.7509409 Z"></path>
                    </g>
                </g>
            </g>
        </g>
    </g>
</svg>
