<?xml version="1.0" encoding="UTF-8"?>
<svg width="176px" height="176px" viewBox="0 0 176 176" version="1.1" xmlns="http://www.w3.org/2000/svg" xmlns:xlink="http://www.w3.org/1999/xlink">
    <!-- Generator: Sketch 43.1 (39012) - http://www.bohemiancoding.com/sketch -->
    <title>tour-control</title>
    <desc>Created with Sketch.</desc>
    <defs>
        <rect id="path-1" x="36" y="60" width="44" height="44" rx="3"></rect>
        <path d="M48,49.5021973 C48,43.9781363 52.4759382,39.5 58,39.5 L58,39.5 C63.5228475,39.5 68,43.9785457 68,49.5021973 L68,61.5 L48,61.5 L48,49.5021973 Z" id="path-2"></path>
    </defs>
    <g id="blue" stroke="none" stroke-width="1" fill="none" fill-rule="evenodd">
        <g id="0.4-welcome" transform="translate(-73.000000, -188.000000)">
            <g id="tour-control" transform="translate(73.000000, 188.000000)">
                <circle id="Oval" fill="#004E6F" cx="88" cy="88" r="88"></circle>
                <rect id="Rectangle-5" stroke="#C1CBD7" stroke-width="1.5" x="52.75" y="23.75" width="68.5" height="128.5" rx="8"></rect>
                <g id="Group-2" transform="translate(63.000000, 38.000000)">
                    <path d="M26.9577603,33.8221443 C26.9577603,34.360525 27.0076098,34.786743 27.1085552,35.1057834 C27.2020231,35.4248238 27.3391093,35.6690891 27.5148289,35.8385793 C27.6967798,36.0130545 27.9036554,36.1264634 28.1342095,36.1825447 C28.3660099,36.2323948 28.6165038,36.263551 28.8856914,36.263551 L30.4646756,36.263551 L30.4646756,38.2612922 L17.4913322,38.2612922 L17.4913322,36.263551 L19.0690702,36.263551 C19.3507201,36.263551 19.6074452,36.2323948 19.8392456,36.1825447 C20.0772772,36.1264634 20.2766753,36.0130545 20.4461638,35.8385793 C20.6156522,35.6690891 20.7527385,35.4248238 20.8524376,35.1057834 C20.9471517,34.786743 20.9970012,34.360525 20.9970012,33.8221443 L20.9970012,13.7288312 L17.9910738,13.7288312 C17.4340052,13.7288312 16.9654195,13.7923901 16.5828242,13.9170152 C16.2077064,14.0366554 15.8998855,14.2111306 15.6618539,14.4367021 C15.4250686,14.6622736 15.2431178,14.9439265 15.1309563,15.2754294 C15.0113174,15.6019473 14.9303119,15.977069 14.8804624,16.3970557 L14.622491,18.7262998 L12.0938729,18.7262998 L12.2945173,11.438221 L35.6926464,11.438221 L35.873351,18.7262998 L33.3634265,18.7262998 L33.0880078,16.3970557 C33.036912,15.977069 32.9559065,15.6019473 32.8375139,15.2754294 C32.7241061,14.9439265 32.5434016,14.6622736 32.30537,14.4367021 C32.0673384,14.2111306 31.7607637,14.0366554 31.3781685,13.9170152 C31.0030507,13.7923901 30.5269876,13.7288312 29.9686727,13.7288312 L26.9577603,13.7288312 L26.9577603,33.8221443 Z M0.706617267,24.7065623 C0.316544596,24.7065623 -3.55271368e-15,24.3900144 -3.55271368e-15,23.9999377 C-3.55271368e-15,23.609861 0.316544596,23.2933131 0.706617267,23.2933131 L2.5560353,23.2933131 C2.94610797,23.2933131 3.26265257,23.609861 3.26265257,23.9999377 C3.26265257,24.3900144 2.94610797,24.7065623 2.5560353,24.7065623 L0.706617267,24.7065623 Z M24.0000623,0 C24.390135,0 24.7066796,0.316547883 24.7066796,0.706624606 L24.7066796,2.55481559 C24.7066796,2.94489232 24.390135,3.2614402 24.0000623,3.2614402 C23.6099896,3.2614402 23.293445,2.94489232 23.293445,2.55481559 L23.293445,0.706624606 C23.293445,0.316547883 23.6099896,0 24.0000623,0 Z M47.2933827,23.2935623 C47.6834554,23.2935623 48,23.6101102 48,24.0001869 C48,24.3902637 47.6834554,24.7068115 47.2933827,24.7068115 L45.4427185,24.7068115 C45.0526458,24.7068115 44.7361012,24.3902637 44.7361012,24.0001869 C44.7361012,23.6101102 45.0526458,23.2935623 45.4427185,23.2935623 L47.2933827,23.2935623 Z M24.0000623,44.7360673 C24.390135,44.7360673 24.7066796,45.0526152 24.7066796,45.4426919 L24.7066796,47.2933754 C24.7066796,47.6834521 24.390135,48 24.0000623,48 C23.6099896,48 23.293445,47.6834521 23.293445,47.2933754 L23.293445,45.4426919 C23.293445,45.0526152 23.6099896,44.7360673 24.0000623,44.7360673 Z M1.31827116,18.6542665 C0.94066087,18.5533201 0.717584167,18.1657359 0.81852949,17.7893679 C0.919474814,17.4105075 1.31079372,17.1874284 1.68341906,17.2883748 L3.46927892,17.7669354 C3.84564297,17.8678818 4.06996591,18.255466 3.96902059,18.6318339 C3.88427636,18.9483818 3.59888773,19.1565058 3.28732809,19.1565058 C3.2262624,19.1565058 3.16395047,19.1490283 3.10413102,19.132827 L1.31827116,18.6542665 Z M30.2123123,0.81779024 C30.5886764,0.918736613 30.8129993,1.30632083 30.7108077,1.68268879 L30.2322521,3.4685672 C30.1475079,3.78386883 29.8621193,3.99199283 29.5505596,3.99199283 C29.4894939,3.99199283 29.4284283,3.98576158 29.3673626,3.96831406 C28.9909985,3.86736768 28.7666756,3.47978346 28.8676209,3.10216926 L29.3474228,1.31629084 C29.4483681,0.94116914 29.8371945,0.714351365 30.2123123,0.81779024 Z M46.6829751,29.3464813 C47.0593391,29.4474277 47.2836621,29.8350119 47.1827167,30.2126261 C47.0979725,30.5279277 46.8125839,30.7360517 46.5010243,30.7360517 C46.4399586,30.7360517 46.3776466,30.7285742 46.3165809,30.7123729 L44.5294748,30.2325661 C44.1531108,30.1316197 43.9287879,29.7440355 44.0297332,29.3676676 C44.1306785,28.9900534 44.5219974,28.7657281 44.895869,28.8679207 L46.6829751,29.3464813 Z M18.6335098,44.0301904 C19.0098738,44.1311368 19.2341968,44.5199673 19.1332515,44.895089 L18.6546959,46.6822137 C18.5687054,46.9987615 18.2833168,47.2068855 17.9717571,47.2068855 C17.9106914,47.2068855 17.8496257,47.1981618 17.78856,47.1819605 C17.412196,47.0810141 17.1878731,46.6934299 17.2888184,46.317062 L17.767374,44.5299373 C17.8695656,44.1523231 18.2596382,43.9342291 18.6335098,44.0301904 Z M3.47413925,12.9651283 C3.1364086,12.7707131 3.02050841,12.3382638 3.21616787,12.0005297 C3.41182732,11.6627955 3.84302587,11.5456479 4.18075652,11.7425556 L5.78217308,12.666028 C6.11990373,12.8616894 6.23455768,13.2928925 6.04014446,13.6318729 C5.90928941,13.8574444 5.67125784,13.9845621 5.42699509,13.9845621 C5.30735618,13.9845621 5.18647104,13.9534058 5.07430957,13.8898469 L3.47413925,12.9651283 Z M34.3691411,6.04020719 C34.0314104,5.8445457 33.9155102,5.41334268 34.1099234,5.07436227 L35.0346325,3.47292908 C35.2302919,3.13519492 35.6627367,3.02053978 36.0004673,3.21495502 C36.338198,3.41061651 36.4540982,3.84181953 36.259685,4.18079994 L35.3349759,5.78098688 C35.2041209,6.00780465 34.9660893,6.1349223 34.7218266,6.1349223 C34.6021877,6.1349223 34.4800563,6.10376602 34.3691411,6.04020719 Z M44.5264839,35.0349963 C44.8642145,35.2306578 44.9801147,35.6631071 44.7857015,35.999595 C44.6536002,36.227659 44.4168149,36.3547766 44.1725521,36.3547766 C44.0529132,36.3547766 43.9307818,36.3236204 43.8198666,36.2588153 L42.2159576,35.3328504 C41.8782269,35.1384352 41.763573,34.7059859 41.9579862,34.3682517 C42.1536456,34.0305176 42.5860904,33.9158624 42.9238211,34.1090314 L44.5264839,35.0349963 Z M13.6321052,41.9587958 C13.9698358,42.1544573 14.085736,42.5869066 13.8900766,42.9233945 L12.9653675,44.5260739 C12.8345125,44.7528917 12.5964809,44.8800093 12.3534644,44.8800093 C12.2325793,44.8800093 12.1116941,44.8488531 11.9995327,44.7852942 C11.661802,44.5883865 11.5471481,44.1571835 11.7415613,43.8194493 L12.6675165,42.2180161 C12.8619297,41.8790357 13.2943745,41.7643806 13.6321052,41.9587958 Z M8.33683751,9.33591931 L7.02953326,8.02860147 C6.7528683,7.75317989 6.7528683,7.3057756 7.02953326,7.02910776 C7.30370574,6.75368618 7.75235163,6.75368618 8.02777035,7.02910776 L9.33632084,8.33642559 C9.61173957,8.61184718 9.61173957,9.05925147 9.33632084,9.33591931 C9.19798836,9.47425322 9.01728377,9.54279706 8.83657918,9.54279706 C8.65587459,9.54279706 8.47516999,9.47425322 8.33683751,9.33591931 Z M38.664053,9.33591931 C38.3873881,9.05925147 38.3886343,8.61184718 38.664053,8.33642559 L39.9713573,7.02910776 C40.2480222,6.75368618 40.6941757,6.75368618 40.9708406,7.02910776 C41.2475056,7.3057756 41.2462593,7.75317989 40.9708406,8.02860147 L39.6635364,9.33591931 C39.5252039,9.47425322 39.3444993,9.54279706 39.1637947,9.54279706 C38.9830901,9.54279706 38.8023855,9.47425322 38.664053,9.33591931 Z M39.6619162,38.6629591 L40.9704667,39.9727694 C41.2458855,40.2469447 41.2458855,40.6955953 40.9704667,40.9722631 C40.8321343,41.1093508 40.6514297,41.1791409 40.4707251,41.1791409 C40.2900205,41.1791409 40.1080697,41.1093508 39.9709834,40.9710169 L38.6624329,39.6612065 C38.3870142,39.3857849 38.3870142,38.9383807 38.6624329,38.6617128 C38.9390979,38.3862912 39.3864975,38.385045 39.6619162,38.6629591 Z M9.33719321,38.6618374 C9.61261193,38.9385053 9.61385817,39.3859096 9.33719321,39.6613312 L8.02864272,40.9711415 C7.89155647,41.1094754 7.70960564,41.1792655 7.52890105,41.1792655 C7.34819646,41.1792655 7.16749187,41.1094754 7.02915939,40.9723877 C6.75374066,40.6957199 6.75374066,40.2470694 7.02915939,39.972894 L8.33770988,38.6630837 C8.6131286,38.3851696 9.06052825,38.3864159 9.33719321,38.6618374 Z M12.6651487,5.78161 L11.7404397,4.18017681 C11.5460264,3.84244265 11.6619266,3.40999338 11.9996573,3.21433189 C12.3361417,3.01991666 12.7685865,3.13581805 12.9654922,3.47355221 L13.888955,5.0749854 C14.0846144,5.41271955 13.9687142,5.84516883 13.6309836,6.04083032 C13.5200683,6.10438914 13.397937,6.13429918 13.2782981,6.13429918 C13.0340353,6.13429918 12.7960037,6.00842778 12.6651487,5.78161 Z M41.9597309,13.6302528 C41.7653177,13.2925186 41.8812179,12.8600693 42.2189485,12.6656541 L43.8203651,11.7409355 C44.1568495,11.5465202 44.5892943,11.6611754 44.7849537,12.0001558 C44.979367,12.3378899 44.864713,12.7703392 44.5257361,12.9660007 L42.9243196,13.8894731 C42.8146506,13.9530319 42.6925192,13.9841882 42.5728803,13.9841882 C42.3286175,13.9841882 42.090586,13.8570705 41.9597309,13.6302528 Z M35.3336051,42.2167699 L36.2583141,43.8194493 C36.4527273,44.1584297 36.3380734,44.5896327 35.9990965,44.7852942 C35.8881812,44.8488531 35.7672961,44.8800093 35.646411,44.8800093 C35.4033944,44.8800093 35.1653629,44.7516454 35.0345078,44.5260739 L34.1097988,42.9221482 C33.9141394,42.5844141 34.0300395,42.1519648 34.3690164,41.9575496 C34.7030084,41.7618881 35.1379456,41.8790357 35.3336051,42.2167699 Z M6.04151532,34.3680025 C6.23717478,34.7057367 6.12127459,35.1381859 5.78354394,35.3326012 L4.18088114,36.2598123 C4.06996591,36.3233711 3.94783453,36.3545274 3.82819563,36.3545274 C3.58393287,36.3545274 3.34714754,36.2274097 3.21629249,36.000592 C3.02063304,35.6628578 3.13653322,35.2304085 3.47426388,35.034747 L5.07692667,34.1100284 C5.41341108,33.9143669 5.84585587,34.0302683 6.04151532,34.3680025 Z M17.7676232,3.46919033 L17.2890676,1.68331191 C17.1868761,1.30569771 17.411199,0.919359738 17.7875631,0.818413366 C18.1614346,0.717466994 18.5515073,0.939299762 18.6524526,1.31691397 L19.1322545,3.10279238 C19.2331998,3.48040659 19.0101231,3.86674456 18.6325128,3.96769093 C18.5714471,3.98513845 18.5103814,3.99261596 18.4493157,3.99261596 C18.1377561,3.99261596 17.8523675,3.78449196 17.7676232,3.46919033 Z M44.0317272,18.6329556 C43.9295356,18.2553414 44.1538585,17.8690034 44.5302226,17.768057 L46.3160824,17.2882502 C46.6912003,17.1823188 47.0800267,17.4116291 47.1822183,17.787997 C47.2831636,18.1656112 47.0600869,18.5519492 46.6824766,18.6528956 L44.8966167,19.1314562 C44.835551,19.1489037 44.7744853,19.1563812 44.7134197,19.1563812 C44.40186,19.1563812 44.1164714,18.9482572 44.0317272,18.6329556 Z M30.2323768,44.5303112 L30.7109324,46.3174358 C30.8118777,46.6925575 30.588801,47.081388 30.2111907,47.1823344 C30.150125,47.1985357 30.0890593,47.2060132 30.0279936,47.2060132 C29.716434,47.2060132 29.4310454,46.9978892 29.3463011,46.6825875 L28.8664993,44.8954629 C28.765554,44.5190949 28.9898769,44.1315107 29.366241,44.0305643 C29.742605,43.9333567 30.1301852,44.1514507 30.2323768,44.5303112 Z M3.97076532,29.3666706 C4.07171064,29.7442848 3.8473877,30.131869 3.47102366,30.2328154 L1.68391755,30.7113759 C1.62285186,30.7275772 1.56053993,30.7350547 1.50072048,30.7350547 C1.18916084,30.7350547 0.90252597,30.5269307 0.817781747,30.2116291 C0.716836423,29.8340149 0.941159365,29.4464307 1.31752341,29.3454843 L3.10462952,28.8669237 C3.48099356,28.7647311 3.86982,28.9890564 3.97076532,29.3666706 Z M0.815538518,21.6457686 C0.427958324,21.5946723 0.156278316,21.2394906 0.207374097,20.8531526 C0.258469879,20.4668147 0.61364787,20.1926393 0.999981826,20.2449819 L2.83319876,20.4880009 C3.22077895,20.5390972 3.49245896,20.8942789 3.44136318,21.2806169 C3.39400611,21.6357986 3.09117014,21.8950189 2.7409771,21.8950189 C2.71106738,21.8950189 2.67991141,21.8925264 2.64875545,21.8887876 L0.815538518,21.6457686 Z M27.1478117,0.207500876 C27.5353919,0.258597188 27.8070719,0.613778868 27.7559761,1.00011684 L27.5129596,2.83335281 C27.4656025,3.18853449 27.1627665,3.4477548 26.8125735,3.4477548 C26.7826638,3.4477548 26.7515078,3.4452623 26.7203519,3.44152354 C26.3327717,3.39042723 26.0610917,3.03524555 26.1121874,2.64766133 L26.355204,0.815671613 C26.4050535,0.429333645 26.7602315,0.15266581 27.1478117,0.207500876 Z M47.1844615,26.3544807 C47.5720417,26.405577 47.8437217,26.7607587 47.7926259,27.1470966 C47.7452688,27.5022783 47.4424329,27.7614986 47.0922398,27.7614986 C47.0623301,27.7614986 47.0311741,27.7590061 47.0000182,27.7552674 L45.165555,27.5134946 C44.7779748,27.4623983 44.5062948,27.1072166 44.5573906,26.7196324 C44.6084864,26.3332944 44.9561869,26.0566266 45.3499983,26.1127079 L47.1844615,26.3544807 Z M21.2805205,44.5571056 C21.6681007,44.6094481 21.9397807,44.9633836 21.8886849,45.3509678 L21.6456684,47.1842038 C21.5983113,47.5406317 21.2954754,47.799852 20.9452823,47.799852 C20.9153726,47.799852 20.8842166,47.7973595 20.8530607,47.7936208 C20.4654805,47.7412782 20.1938005,47.3873428 20.2448963,46.9997585 L20.4879128,45.1652763 C20.5377623,44.7801846 20.8904478,44.5109943 21.2805205,44.5571056 Z M2.21456593,15.7248277 C1.85440299,15.5752775 1.6836683,15.161522 1.83321693,14.8013553 C1.98276556,14.4411886 2.40025548,14.2704522 2.75667971,14.4200023 L4.46402654,15.1291194 C4.82418949,15.2786696 4.99492417,15.6924251 4.84537555,16.0525918 C4.73321408,16.3242746 4.47025774,16.4875336 4.19234654,16.4875336 C4.10261736,16.4875336 4.01039571,16.4713323 3.92191277,16.4339448 L2.21456593,15.7248277 Z M33.1982999,1.83286209 C33.5584629,1.98241228 33.7291976,2.39616778 33.5796489,2.75633446 L32.8705392,4.46369903 C32.7583777,4.73538186 32.4954214,4.89864081 32.2187564,4.89864081 C32.127781,4.89864081 32.0355593,4.88243954 31.9483226,4.84505199 C31.5881597,4.69550181 31.4161788,4.28174631 31.5657274,3.92157962 L32.2748371,2.21421506 C32.4243858,1.85404837 32.8418757,1.68206566 33.1982999,1.83286209 Z M45.7854341,32.275297 C46.145597,32.4248471 46.3163317,32.8386026 46.1667831,33.1987693 C46.0546216,33.4704522 45.7916653,33.6337111 45.5150003,33.6337111 C45.4240249,33.6337111 45.3330495,33.6175098 45.2433203,33.5801223 L43.5347272,32.8710052 C43.1745643,32.721455 43.0038296,32.3076995 43.1533782,31.9475328 C43.3029268,31.5873661 43.7179243,31.4166297 44.076841,31.5661798 L45.7854341,32.275297 Z M16.052799,43.153951 C16.4129619,43.3035012 16.5836966,43.7160104 16.434148,44.0761771 L15.7250382,45.7847879 C15.6128768,46.057717 15.3499204,46.2222222 15.0732555,46.2222222 C14.98228,46.2222222 14.8913046,46.2035284 14.8028217,46.1673872 C14.4426587,46.017837 14.2706778,45.6053277 14.4202265,45.245161 L15.1293362,43.5365502 C15.2801311,43.1751373 15.692636,43.0056471 16.052799,43.153951 Z M6.5648109,11.4949254 L5.09923434,10.3683141 C4.78892094,10.13028 4.73159397,9.68661448 4.96837929,9.37754411 C5.2076571,9.06847373 5.65131803,9.00989991 5.95913895,9.24793395 L7.42471551,10.3745453 C7.73502891,10.6125794 7.79235588,11.0549986 7.55557056,11.3653153 C7.41599184,11.5460217 7.20662376,11.6407368 6.9947632,11.6407368 C6.84396834,11.6407368 6.69317347,11.5933793 6.5648109,11.4949254 Z M37.0648797,7.70146045 C36.9140848,7.70146045 36.76329,7.65410289 36.6349274,7.55564902 C36.3258602,7.31761499 36.267287,6.87394945 36.5053186,6.56487907 L37.6319182,5.0992873 C37.8687036,4.78897067 38.3136107,4.73039685 38.6226779,4.96843089 C38.9317451,5.20646493 38.989072,5.65013047 38.7522867,5.95920084 L37.6256871,7.42479262 C37.4861083,7.60674534 37.2767403,7.70146045 37.0648797,7.70146045 Z M41.434566,36.503953 L42.9013888,37.6318106 C43.2104559,37.8698446 43.2690292,38.3135101 43.0309976,38.6225805 C42.8914189,38.8045332 42.6820508,38.8992484 42.4701902,38.8992484 C42.3193954,38.8992484 42.1686005,38.8506445 42.0402379,38.7521907 L40.5734151,37.6230868 C40.264348,37.386299 40.2057748,36.9426335 40.4438063,36.6335631 C40.6818379,36.3232465 41.1267451,36.2684114 41.434566,36.503953 Z M10.3753099,40.5725903 C10.6120953,40.2647661 11.0557562,40.2061923 11.3660696,40.4429801 C11.6751368,40.6810141 11.73371,41.1234334 11.4956784,41.43375 L10.3690787,42.9018343 C10.2295,43.0825408 10.0201319,43.1785022 9.80702515,43.1785022 C9.65747652,43.1785022 9.50668166,43.1298984 9.37831908,43.0314445 C9.06800568,42.7934104 9.01067871,42.3509912 9.24746403,42.0406745 L10.3753099,40.5725903 Z M10.3948759,7.40809285 L9.2707687,5.94000857 C9.03273713,5.63093819 9.09255658,5.18727266 9.40162374,4.94923862 C9.71069091,4.71120458 10.1543518,4.77102465 10.3923834,5.08134128 L11.5164906,6.54942556 C11.7545222,6.85849593 11.6947027,7.30216147 11.3856355,7.53894925 C11.257273,7.63740312 11.1064781,7.68476068 10.9569295,7.68476068 C10.7438227,7.68476068 10.5344546,7.59004557 10.3948759,7.40809285 Z M40.4603813,11.3853799 C40.223596,11.0750633 40.2821692,10.632644 40.5912363,10.39461 L42.0593054,9.2704911 C42.3683725,9.03245706 42.8120335,9.09103088 43.050065,9.40134751 C43.2880966,9.71166414 43.2282772,10.1553297 42.91921,10.3921175 L41.451141,11.5162363 C41.3227784,11.6146902 41.1719835,11.6620477 41.0224349,11.6620477 C40.8093281,11.6620477 40.59996,11.5673326 40.4603813,11.3853799 Z M37.6040025,40.5907855 L38.7293559,42.0601161 C38.9673875,42.3691864 38.907568,42.812852 38.5985009,43.050886 C38.4701383,43.1493399 38.3193434,43.1966974 38.1697948,43.1966974 C37.956688,43.1966974 37.7473199,43.1007361 37.6077412,42.9187833 L36.4823878,41.4494528 C36.2443562,41.1403824 36.3041757,40.6967169 36.6132428,40.4599291 C36.9210638,40.2206488 37.3659709,40.2804689 37.6040025,40.5907855 Z M7.54148806,36.6134985 C7.77827339,36.9225688 7.71970018,37.3662344 7.41063301,37.6042684 L5.94131774,38.7296335 C5.81295517,38.8280874 5.6621603,38.875445 5.51261167,38.875445 C5.29950488,38.875445 5.0901368,38.7794836 4.95055808,38.5987771 C4.71252652,38.2897067 4.77234597,37.844795 5.08141313,37.6080072 L6.5507284,36.4826421 C6.85979556,36.2421155 7.30345649,36.3044281 7.54148806,36.6134985 Z M15.7522062,2.20349729 L16.4588235,3.91210811 C16.6083721,4.27352105 16.4363912,4.6860303 16.0762283,4.83558048 C15.9877453,4.87172177 15.8955237,4.8891693 15.8057945,4.8891693 C15.5291295,4.8891693 15.264927,4.7246641 15.1527655,4.45298127 L14.4461482,2.74437045 C14.2978458,2.38295751 14.4685805,1.97044826 14.8287435,1.82089808 C15.1876602,1.67259415 15.6026576,1.84333061 15.7522062,2.20349729 Z M43.1645944,16.0758967 C43.0150457,15.7144838 43.1870267,15.3019745 43.5471896,15.1524243 L45.2557827,14.4457997 C45.6159456,14.2974958 46.0296968,14.4682323 46.1792455,14.8296452 C46.3287941,15.1898119 46.1568132,15.6035674 45.7966502,15.7518713 L44.0880571,16.4584959 C43.9995742,16.4946372 43.9073525,16.5120847 43.8176234,16.5120847 C43.5409584,16.5120847 43.2767558,16.3475795 43.1645944,16.0758967 Z M32.8466114,43.5457725 L33.5532287,45.2556296 C33.7027773,45.6170425 33.5307964,46.0295517 33.1693872,46.1791019 C33.0809042,46.2164895 32.9899288,46.2326907 32.9001997,46.2326907 C32.6222885,46.2326907 32.3593321,46.0681855 32.2471706,45.7965027 L31.5405534,44.0866456 C31.392251,43.7252327 31.5629857,43.3127234 31.9243949,43.161927 C32.2833116,43.0123768 32.6970628,43.1843595 32.8466114,43.5457725 Z M4.837275,31.9242279 C4.98682362,32.2843946 4.8148427,32.6981501 4.45343352,32.846454 L2.7435942,33.5530786 C2.6563575,33.5892199 2.56413585,33.6066674 2.47440667,33.6066674 C2.19649547,33.6066674 1.93353914,33.4421622 1.82137766,33.1704794 C1.67182904,32.8090665 1.84380996,32.3965572 2.20521914,32.247007 L3.91505846,31.5403824 C4.27272892,31.389586 4.68772637,31.562815 4.837275,31.9242279 Z M20.8825965,0.203263621 C21.2739154,0.149674806 21.6241085,0.42509639 21.6752043,0.811434358 L21.9144821,2.64467033 C21.9655779,3.03225455 21.6926516,3.38618998 21.3063177,3.43728629 C21.2739154,3.44102504 21.2440057,3.44351754 21.214096,3.44351754 C20.863903,3.44351754 20.5598207,3.18429723 20.5137099,2.8278693 L20.2744321,0.995879581 C20.2233363,0.608295362 20.4962626,0.254359933 20.8825965,0.203263621 Z M45.1707892,20.5137983 L47.0040061,20.2732718 C47.3866014,20.2159442 47.7455181,20.4938583 47.7966139,20.8814425 C47.8477096,21.2690268 47.5747834,21.6242084 47.1884494,21.6740585 L45.3539863,21.914585 C45.3240766,21.9183238 45.2929206,21.9208163 45.2617646,21.9208163 C44.9115716,21.9208163 44.6087356,21.661596 44.5626248,21.3064143 C44.511529,20.9188301 44.783209,20.5648947 45.1707892,20.5137983 Z M26.6933085,44.5608443 C27.0796424,44.5109943 27.4348204,44.7826771 27.4859162,45.1690151 L27.7264402,47.0034973 C27.777536,47.3910815 27.5046098,47.7462632 27.1182758,47.7973595 C27.0871199,47.8010983 27.0559639,47.8035908 27.0260542,47.8035908 C26.6758611,47.8035908 26.3730252,47.5443704 26.3256681,47.1879425 L26.0851441,45.3547065 C26.0340483,44.9671223 26.3057283,44.6119406 26.6933085,44.5608443 Z M0.996367734,27.7266036 C0.96521177,27.7303423 0.934055806,27.7328348 0.90414608,27.7328348 C0.555199281,27.7328348 0.251117071,27.4736145 0.203760006,27.1184328 C0.152664224,26.7308486 0.42559047,26.3769132 0.813170665,26.3258169 L2.64763383,26.0852903 C3.03646027,26.0329478 3.38789954,26.3058769 3.43899532,26.6934611 C3.49009111,27.079799 3.2184111,27.4349807 2.8308309,27.486077 L0.996367734,27.7266036 Z" id="Combined-Shape" fill="#ABEC90"></path>
                    <g id="Rectangle-7">
                        <use fill="#004E6F" fill-rule="evenodd" xlink:href="#path-1"></use>
                        <rect stroke="#ABEC90" stroke-width="1.5" x="36.75" y="60.75" width="42.5" height="42.5" rx="3"></rect>
                    </g>
                    <g id="Rectangle-8">
                        <use fill="#004E6F" fill-rule="evenodd" xlink:href="#path-2"></use>
                        <path stroke="#ABEC90" stroke-width="1.5" d="M67.25,60.75 L48.75,60.75 L48.75,49.5021973 C48.75,44.3918794 52.8906221,40.25 58,40.25 C63.1084509,40.25 67.25,44.3925762 67.25,49.5021973 L67.25,60.75 Z"></path>
                    </g>
                    <path d="M56,81.4648712 C54.8043973,80.7732524 54,79.4805647 54,78 C54,75.790861 55.790861,74 58,74 C60.209139,74 62,75.790861 62,78 C62,79.4805647 61.1956027,80.7732524 60,81.4648712 L60,88.9941413 C60,90.1019465 59.1122704,91 58,91 C56.8954305,91 56,90.1029399 56,88.9941413 L56,81.4648712 Z" id="Combined-Shape" stroke="#ABEC90"></path>
                </g>
                <rect id="Rectangle-6" fill="#C1CBD7" x="82" y="29" width="10" height="2" rx="1"></rect>
                <line id="Line-1" stroke="#C1CBD7" stroke-width="0.4" x1="53" x2="121" y1="35" y2="35"></line>
                <line id="Line-2" stroke="#C1CBD7" stroke-width="0.4" x1="53" x2="99" y1="138" y2="138"></line>
                <rect id="Rectangle-7" fill="#C1CBD7" x="79" y="141" width="16" height="7" rx="2" ry="2"></rect>
            </g>
        </g>
    </g>
</svg>
