<?xml version="1.0" encoding="UTF-8"?>
<svg width="176px" height="176px" viewBox="0 0 176 176" version="1.1" xmlns="http://www.w3.org/2000/svg" xmlns:xlink="http://www.w3.org/1999/xlink">
    <!-- Generator: Sketch 43.1 (39012) - http://www.bohemiancoding.com/sketch -->
    <title>backup-warning</title>
    <desc>Created with Sketch.</desc>
    <defs></defs>
    <g id="blue" stroke="none" stroke-width="1" fill="none" fill-rule="evenodd">
        <g id="0.7-backup" transform="translate(-73.000000, -217.000000)">
            <g id="backup-warning" transform="translate(73.000000, 217.000000)">
                <circle id="Oval" fill="#004E6F" cx="88" cy="88" r="88"></circle>
                <g id="icognito" transform="translate(31.000000, 44.000000)" fill-rule="nonzero">
                    <path d="M22.9314752,36.1734448 L22.9415919,36.1845736 L23.2733765,36.1845736 L90.9130402,36.1845736 L91.556064,36.1845736 L91.5577491,36.1736672 L111.000146,36.1736672 C112.243032,36.1736672 113.250167,37.1795016 113.25,38.4193252 C113.25,46.2653473 106.857095,52.65 99.0000645,52.65 L14.9999355,52.65 C7.14290454,52.65 0.75,46.2653473 0.75,38.4194262 C0.75,37.1792494 1.75721992,36.1732781 2.99997552,36.1734448 L22.9314752,36.1734448 Z M24.6763029,31.29 L28.4573082,7.96521675 C28.8420088,5.58445546 30.2231725,3.48026894 32.2670469,2.15006442 C34.3035566,0.82482993 36.8222964,0.416491626 39.1745992,1.03015333 L40.271943,1.31807664 C51.214659,4.18201902 62.7876944,4.18259699 73.7360739,1.32069731 L74.8378826,1.03034999 C77.1901299,0.416400382 79.7097179,0.820397232 81.7403257,2.14185297 C83.7819511,3.47065611 85.1707365,5.59104405 85.5555165,7.97600454 L89.3259405,31.29 L24.6763029,31.29 Z" id="Shape" stroke="#C1CBD7" stroke-width="1.5"></path>
                    <path d="M89.4000469,62.8841766 C93.1899389,62.8841766 96.1499788,65.8643792 96.1497773,69.6588433 L96.1497773,74.4810448 C96.1497773,82.4513163 89.8709199,88.2309602 81.0497695,88.2309602 L75.5499375,88.2309602 C66.7595072,88.2309602 60.4320486,82.5708785 60.3059988,74.6506524 L60.2942525,73.9125871 L59.5560937,73.9125871 L54.4434609,73.9125871 L53.7053018,73.9125871 L53.6935559,74.6506527 C53.5675096,82.5708727 47.2398511,88.2309602 38.4496172,88.2309602 L32.9497852,88.2309602 C24.0640394,88.2309602 17.5498594,82.3908887 17.5498594,74.4810448 L17.5498594,69.6584403 C17.5498594,65.9294481 20.7431908,62.8841766 24.5999531,62.8841766 L46.7996719,62.8841766 C50.2605634,62.8841766 53.241477,65.5115594 53.6509274,68.7896651 L53.7329952,69.446709 L54.3951445,69.446709 L59.6046328,69.446709 L60.2667413,69.446709 L60.3488443,68.7897107 C60.7584928,65.5116512 63.7395718,62.8841766 67.2001055,62.8841766 L89.4000469,62.8841766 Z" id="Shape" stroke="#C1CBD7" stroke-width="1.5"></path>
                    <path d="M51.0228712,70.1979148 C50.6561683,67.5082036 48.0032332,65.2666667 44.7931215,65.2666667 L26.5850785,65.2666667 C23.1253238,65.2666667 20.1875,67.76889 20.1875,70.9205834 L20.1875,74.544407 C20.1875,80.8218417 25.8295754,85.44 33.4335481,85.44 L37.9444692,85.44 C45.4722889,85.44 50.9534753,80.9570925 51.0625,74.6808223 L51.0228712,70.1979148 Z" id="Shape" fill="#ABEC90"></path>
                    <path d="M93.7728712,70.1979148 C93.4061683,67.5082036 90.7532332,65.2666667 87.5431215,65.2666667 L69.3350785,65.2666667 C65.8753238,65.2666667 62.9375,67.76889 62.9375,70.9205834 L62.9375,74.544407 C62.9375,80.8218417 68.5795754,85.44 76.1835481,85.44 L80.6944692,85.44 C88.2222889,85.44 93.7034753,80.9570925 93.8125,74.6808223 L93.7728712,70.1979148 Z" id="Shape" fill="#ABEC90"></path>
                </g>
            </g>
        </g>
    </g>
</svg>