<?xml version="1.0" encoding="UTF-8"?>
<svg width="87px" height="45px" viewBox="0 0 87 45" version="1.1" xmlns="http://www.w3.org/2000/svg" xmlns:xlink="http://www.w3.org/1999/xlink">
    <!-- Generator: Sketch 43.1 (39012) - http://www.bohemiancoding.com/sketch -->
    <title>logo</title>
    <desc>Created with Sketch.</desc>
    <defs></defs>
    <g id="blue" stroke="none" stroke-width="1" fill="none" fill-rule="evenodd">
        <g id="Artboard" transform="translate(-117.000000, -91.000000)" fill="#ABEC90">
            <g id="logo" transform="translate(117.000000, 91.000000)">
                <path d="M63.444228,38.1549808 C62.744748,38.1549808 62.193168,38.4024808 61.792968,38.89575 C61.391028,39.3890192 61.190928,40.0692115 61.190928,40.9380577 C61.190928,41.8467115 61.384068,42.5338269 61.770348,43.0011346 C62.154888,43.4667115 62.713428,43.7003654 63.444228,43.7003654 C63.760908,43.7003654 64.067148,43.6692115 64.362948,43.6069038 C64.658748,43.5445962 64.966728,43.46325 65.285148,43.3663269 L65.285148,44.40825 C64.700508,44.6280577 64.037568,44.7388269 63.298068,44.7388269 C62.205348,44.7388269 61.368408,44.4099808 60.783768,43.7522885 C60.199128,43.0945962 59.906808,42.1547885 59.906808,40.9294038 C59.906808,40.1592115 60.047748,39.4842115 60.331368,38.9061346 C60.614988,38.3280577 61.025628,37.8849808 61.563288,37.5786346 C62.100948,37.2705577 62.730828,37.1165192 63.454668,37.1165192 C64.216788,37.1165192 64.921488,37.27575 65.567028,37.5924808 L65.128548,38.6015192 C64.876248,38.4820962 64.610028,38.37825 64.329888,38.2899808 C64.049748,38.1999808 63.753948,38.1549808 63.444228,38.1549808 Z M75.1071,44.6348077 L75.1071,37.2201923 L76.3251,37.2201923 L76.3251,44.6348077 L75.1071,44.6348077 Z M83.384454,41.1059423 L83.384454,37.2203654 L84.501534,37.2203654 L84.501534,44.6349808 L83.006874,44.6349808 L79.344174,38.7261346 L79.302414,38.7261346 L79.328514,39.0567115 C79.375494,39.6849808 79.399854,40.2595962 79.399854,40.7805577 L79.399854,44.6349808 L78.293214,44.6349808 L78.293214,37.2203654 L79.772214,37.2203654 L83.426214,43.0980577 L83.455794,43.0980577 C83.448834,43.0201731 83.434914,42.7380577 83.415774,42.24825 C83.394894,41.7601731 83.384454,41.3794038 83.384454,41.1059423 Z M70.02978,37.1061346 C71.13642,37.1061346 71.99424,37.4384423 72.59802,38.1047885 C73.20354,38.7711346 73.5063,39.7092115 73.5063,40.9190192 C73.5063,42.1270962 73.2018,43.0651731 72.59628,43.7349808 C71.98902,44.4047885 71.12946,44.7388269 70.01934,44.7388269 C68.8953,44.7388269 68.03052,44.4065192 67.42674,43.7419038 C66.8247,43.0772885 66.52194,42.1340192 66.52194,40.9103654 C66.52194,39.6849808 66.82644,38.7451731 67.43196,38.0892115 C68.03922,37.43325 68.904,37.1061346 70.02978,37.1061346 Z M71.65842,43.0011346 C72.02556,42.5338269 72.21,41.8397885 72.21,40.9172885 C72.21,40.0086346 72.0273,39.3197885 71.6619,38.8490192 C71.29824,38.3799808 70.75362,38.1445962 70.02978,38.1445962 C69.29898,38.1445962 68.7474,38.3799808 68.37504,38.8490192 C68.00442,39.3197885 67.81824,40.0086346 67.81824,40.9172885 C67.81824,41.8294038 68.00268,42.5217115 68.3733,42.9924808 C68.74392,43.4649808 69.29202,43.7003654 70.01934,43.7003654 C70.74318,43.7003654 71.28954,43.4667115 71.65842,43.0011346 Z M68.793945,22.7715577 C68.793945,24.1708846 68.567745,25.4559808 68.110995,26.6251154 C67.654245,27.7951154 66.998265,28.8084808 66.148275,29.6539615 C65.297415,30.5003077 64.262985,31.158 63.044985,31.6279038 C61.826985,32.0978077 60.456735,32.3331923 58.935105,32.3331923 C57.402165,32.3331923 56.025825,32.0978077 54.807825,31.6279038 C53.590695,31.158 52.556265,30.5003077 51.705405,29.6539615 C50.855415,28.8084808 50.203785,27.7951154 49.752255,26.6251154 C49.301595,25.4559808 49.075395,24.1708846 49.075395,22.7715577 L49.075395,9.24126923 L54.398925,9.24126923 L54.398925,22.7455962 C54.398925,23.5495385 54.504195,24.2652115 54.708645,24.8969423 C54.913095,25.5286731 55.207155,26.0669423 55.596045,26.5100192 C55.984065,26.9548269 56.461695,27.2940577 57.023715,27.5285769 C57.585735,27.7639615 58.220835,27.88425 58.935105,27.88425 C59.648505,27.88425 60.288825,27.7639615 60.850845,27.5285769 C61.412865,27.2940577 61.885275,26.9600192 62.273295,26.5212692 C62.662185,26.0825192 62.961465,25.54425 63.165915,24.9125192 C63.371235,24.2807885 63.470415,23.5651154 63.470415,22.7611731 L63.470415,9.24126923 L68.793945,9.24126923 L68.793945,22.7715577 Z M28.947597,13.4398558 L28.947597,9.24100962 L47.185407,9.24100962 L47.185407,13.4398558 L40.728267,13.4398558 L40.728267,32.0819712 L35.404737,32.0819712 L35.404737,13.4398558 L28.947597,13.4398558 Z M20.91567,32.0824038 L20.91567,9.24144231 L26.27052,9.24144231 L26.27052,32.0824038 L20.91567,32.0824038 Z M86.244405,22.3224231 C86.538465,22.9956923 86.685495,23.8108846 86.685495,24.7610769 C86.685495,25.8159808 86.501925,26.8025192 86.133915,27.7224231 C85.766775,28.6405962 85.236075,29.4454038 84.538335,30.1290577 C83.839725,30.8135769 82.979295,31.3509808 81.955305,31.743 C80.931315,32.1350192 79.766385,32.3331923 78.463995,32.3331923 C77.749725,32.3331923 77.025885,32.2596346 76.285515,32.1185769 C75.545145,31.9723269 74.825655,31.7689615 74.133135,31.5076154 C73.439745,31.2471346 72.788985,30.9338654 72.179985,30.573 C71.570985,30.213 71.041155,29.8105962 70.589625,29.3718462 L72.164325,26.8553077 C72.280035,26.6675192 72.442725,26.5108846 72.652395,26.3957885 C72.862935,26.2806923 73.088265,26.2235769 73.330125,26.2235769 C73.645065,26.2235769 73.965225,26.3222308 74.285385,26.5212692 C74.605545,26.7194423 74.967465,26.93925 75.372015,27.1789615 C75.776565,27.4195385 76.238535,27.6384808 76.763145,27.8366538 C77.287755,28.0356923 77.907195,28.1343462 78.621465,28.1343462 C79.588035,28.1343462 80.337975,27.9205962 80.873895,27.4974231 C81.408945,27.07425 81.676905,26.4061731 81.676905,25.4871346 C81.676905,24.9488654 81.529875,24.5153077 81.235815,24.1812692 C80.941755,23.8472308 80.558955,23.5703077 80.081325,23.3513654 C79.603695,23.1315577 79.057335,22.9385769 78.448335,22.7715577 C77.839335,22.6045385 77.214675,22.4219423 76.574355,22.2185769 C75.934035,22.0143462 75.309375,21.76425 74.700375,21.4605 C74.091375,21.1628077 73.550235,20.7716538 73.072605,20.2861731 C72.594975,19.7998269 72.206085,19.1940577 71.912025,18.4688654 C71.617965,17.7428077 71.470935,16.8445385 71.470935,15.77925 C71.470935,14.9233846 71.644935,14.0874231 71.991195,13.2730962 C72.337455,12.4579038 72.847275,11.7275192 73.518915,11.0897308 C74.190555,10.4528077 75.015315,9.94655769 75.991455,9.56492308 C76.968465,9.18415385 78.086415,8.99117308 79.346175,8.99117308 C80.049135,8.99117308 80.737305,9.04828846 81.404595,9.15819231 C82.071015,9.26723077 82.700895,9.42905769 83.299455,9.64886538 C83.898015,9.86261538 84.459165,10.1239615 84.979425,10.4216538 C85.498815,10.7245385 85.960785,11.0637692 86.370555,11.4454038 L85.047285,13.8840577 C84.889815,14.1341538 84.727125,14.3228077 84.553995,14.4482885 C84.380865,14.5677115 84.154665,14.6308846 83.881485,14.6308846 C83.640495,14.6308846 83.382975,14.5573269 83.104575,14.4058846 C82.827045,14.2544423 82.511235,14.0822308 82.159755,13.8944423 C81.808275,13.7066538 81.404595,13.5387692 80.952195,13.3873269 C80.500665,13.2358846 79.986495,13.158 79.408815,13.158 C78.411795,13.158 77.671425,13.37175 77.183355,13.7949231 C76.695285,14.2180962 76.448205,14.7875192 76.448205,15.5075192 C76.448205,15.9670385 76.595235,16.3486731 76.889295,16.65675 C77.183355,16.9596346 77.571375,17.2209808 78.049875,17.4399231 C78.527505,17.6588654 79.072995,17.8579038 79.687215,18.0405 C80.301435,18.2230962 80.926095,18.4273269 81.566415,18.6514615 C82.207605,18.8755962 82.837485,19.1421346 83.451705,19.4450192 C84.065925,19.7479038 84.611415,20.1347308 85.089045,20.6046346 C85.567545,21.0745385 85.950345,21.6491538 86.244405,22.3224231 Z M0,13.4398558 L0,9.24100962 L18.23781,9.24100962 L18.23781,13.4398558 L11.78067,13.4398558 L11.78067,32.0819712 L6.45714,32.0819712 L6.45714,13.4398558 L0,13.4398558 Z M23.525496,0 C25.047126,0 26.280786,1.22798077 26.280786,2.74153846 C26.280786,4.25509615 25.047126,5.48221154 23.525496,5.48221154 C22.003866,5.48221154 20.769336,4.25509615 20.769336,2.74153846 C20.769336,1.22798077 22.003866,0 23.525496,0 Z" id="Combined-Shape"></path>
            </g>
        </g>
    </g>
</svg>