<?xml version="1.0" encoding="UTF-8"?>
<svg width="20px" height="20px" viewBox="0 0 20 20" version="1.1" xmlns="http://www.w3.org/2000/svg" xmlns:xlink="http://www.w3.org/1999/xlink">
    <!-- Generator: Sketch 43.1 (39012) - http://www.bohemiancoding.com/sketch -->
    <title>ico-send</title>
    <desc>Created with Sketch.</desc>
    <defs></defs>
    <g id="blue" stroke="none" stroke-width="1" fill="none" fill-rule="evenodd">
        <g id="2.0-dashboard" transform="translate(-85.000000, -529.000000)">
            <g id="ico-send" transform="translate(83.000000, 526.000000)">
                <path d="M14,15.5 L20.0092049,15.5 C20.2740118,15.5 20.5,15.2728459 20.5,14.9941413 L20.5,5.00585866 C20.5,4.72342369 20.2781783,4.5 20.0092049,4.5 L3.99079514,4.5 C3.72598819,4.5 3.5,4.72715408 3.5,5.00585866 L3.5,14.9941413 C3.5,15.2765763 3.72182171,15.5 3.99079514,15.5 L10,15.5 L10,17 L14,17 L14,15.5 Z M2,5.00585866 C2,3.89805351 2.89821238,3 3.99079514,3 L20.0092049,3 C21.1086907,3 22,3.89706013 22,5.00585866 L22,14.9941413 C22,16.1019465 21.1017876,17 20.0092049,17 L3.99079514,17 C2.89130934,17 2,16.1029399 2,14.9941413 L2,5.00585866 Z" id="Combined-Shape" fill="#8E9398" fill-rule="nonzero"></path>
                <circle id="Oval-2" stroke="#8E9398" cx="18" cy="10" r="1.5"></circle>
                <rect id="Rectangle-8" fill="#8E9398" x="11" y="12" width="2" height="7"></rect>
                <polygon id="Rectangle-9" fill="#8E9398" points="9 19 15 19 12 23"></polygon>
            </g>
        </g>
    </g>
</svg>