<?xml version="1.0" encoding="UTF-8"?>
<svg width="20px" height="20px" viewBox="0 0 20 20" version="1.1" xmlns="http://www.w3.org/2000/svg" xmlns:xlink="http://www.w3.org/1999/xlink">
    <!-- Generator: Sketch 43.1 (39012) - http://www.bohemiancoding.com/sketch -->
    <title>ico-send-selected</title>
    <desc>Created with Sketch.</desc>
    <defs></defs>
    <g id="blue" stroke="none" stroke-width="1" fill="none" fill-rule="evenodd">
        <g id="2.0-dashboard" transform="translate(-85.000000, -529.000000)" fill="#0F2845">
            <g id="ico-send-selected" transform="translate(83.000000, 526.000000)">
                <path d="M2,5.00585866 C2,3.89805351 2.89821238,3 3.99079514,3 L20.0092049,3 C21.1086907,3 22,3.89706013 22,5.00585866 L22,14.9941413 C22,16.1019465 21.1017876,17 20.0092049,17 L3.99079514,17 C2.89130934,17 2,16.1029399 2,14.9941413 L2,5.00585866 Z M18,12 C19.1045695,12 20,11.1045695 20,10 C20,8.8954305 19.1045695,8 18,8 C16.8954305,8 16,8.8954305 16,10 C16,11.1045695 16.8954305,12 18,12 Z M11,13 L11,17 L13,17 L13,13 L11,13 Z" id="Combined-Shape"></path>
                <rect id="Rectangle-8" x="11" y="17" width="2" height="2"></rect>
                <polygon id="Rectangle-9" points="9 19 15 19 12 23"></polygon>
            </g>
        </g>
    </g>
</svg>