<?xml version="1.0" encoding="UTF-8"?>
<svg width="20px" height="18px" viewBox="0 0 20 18" version="1.1" xmlns="http://www.w3.org/2000/svg" xmlns:xlink="http://www.w3.org/1999/xlink">
    <!-- Generator: Sketch 43.1 (39012) - http://www.bohemiancoding.com/sketch -->
    <title>ico-receive</title>
    <desc>Created with Sketch.</desc>
    <defs></defs>
    <g id="blue" stroke="none" stroke-width="1" fill="none" fill-rule="evenodd">
        <g id="2.0-dashboard" transform="translate(-215.000000, -528.000000)">
            <g id="ico-receive" transform="translate(213.000000, 526.000000)">
                <path d="M10,6 L3.99079514,6 C2.89821238,6 2,6.89805351 2,8.00585866 L2,17.9941413 C2,19.1029399 2.89130934,20 3.99079514,20 L20.0092049,20 C21.1017876,20 22,19.1019465 22,17.9941413 L22,8.00585866 C22,6.89706013 21.1086907,6 20.0092049,6 L14,6 L14,7.5 L20.0092049,7.5 C20.2781783,7.5 20.5,7.72342369 20.5,8.00585866 L20.5,17.9941413 C20.5,18.2728459 20.2740118,18.5 20.0092049,18.5 L3.99079514,18.5 C3.72182171,18.5 3.5,18.2765763 3.5,17.9941413 L3.5,8.00585866 C3.5,7.72715408 3.72598819,7.5 3.99079514,7.5 L10,7.5 L10,6 Z" id="Combined-Shape" fill="#8E9398" fill-rule="nonzero"></path>
                <circle id="Oval-2" stroke="#8E9398" cx="18" cy="13" r="1.5"></circle>
                <path d="M11,2 L13,2 L13,9 L11,9 L11,2 Z M9,9 L15,9 L12,13 L9,9 Z" id="Combined-Shape" fill="#8E9398"></path>
            </g>
        </g>
    </g>
</svg>