<?xml version="1.0" encoding="UTF-8"?>
<svg width="20px" height="18px" viewBox="0 0 20 18" version="1.1" xmlns="http://www.w3.org/2000/svg" xmlns:xlink="http://www.w3.org/1999/xlink">
    <!-- Generator: Sketch 43.1 (39012) - http://www.bohemiancoding.com/sketch -->
    <title>ico-receive-selected</title>
    <desc>Created with Sketch.</desc>
    <defs></defs>
    <g id="blue" stroke="none" stroke-width="1" fill="none" fill-rule="evenodd">
        <g id="2.0-dashboard" transform="translate(-215.000000, -528.000000)" fill="#0F2845">
            <g id="ico-receive-selected" transform="translate(213.000000, 526.000000)">
                <path d="M2,8.00585866 C2,6.89805351 2.89821238,6 3.99079514,6 L20.0092049,6 C21.1086907,6 22,6.89706013 22,8.00585866 L22,17.9941413 C22,19.1019465 21.1017876,20 20.0092049,20 L3.99079514,20 C2.89130934,20 2,19.1029399 2,17.9941413 L2,8.00585866 Z M11,6 L13,6 L13,9 L11,9 L11,6 Z M9,9 L12,13 L15,9 L9,9 Z M18,15 C19.1045695,15 20,14.1045695 20,13 C20,11.8954305 19.1045695,11 18,11 C16.8954305,11 16,11.8954305 16,13 C16,14.1045695 16.8954305,15 18,15 Z" id="Combined-Shape"></path>
                <rect id="Rectangle-11" x="11" y="2" width="2" height="4"></rect>
            </g>
        </g>
    </g>
</svg>