<?xml version="1.0" encoding="UTF-8"?>
<svg width="18px" height="18px" viewBox="0 0 18 18" version="1.1" xmlns="http://www.w3.org/2000/svg" xmlns:xlink="http://www.w3.org/1999/xlink">
    <!-- Generator: Sketch 43.1 (39012) - http://www.bohemiancoding.com/sketch -->
    <title>ico-settings</title>
    <desc>Created with Sketch.</desc>
    <defs>
        <path d="M12.6490027,17.2049436 C11.7850823,18.0645271 11.7844017,19.4609484 12.6425672,20.3190229 L12.679511,20.3559629 C13.5398772,21.2162379 14.9303447,21.2207694 15.7940387,20.3572546 L20.9491634,15.2031993 L20.9999095,12 L17.8291941,12.0507571 L12.6490027,17.2049436 Z" id="path-1"></path>
    </defs>
    <g id="blue" stroke="none" stroke-width="1" fill="none" fill-rule="evenodd">
        <g id="2.0-dashboard" transform="translate(-278.000000, -529.000000)">
            <g id="ico-settings" transform="translate(275.000000, 526.000000)">
                <path d="M10.5,10.5 L7,7" id="Path-5" stroke="#8E9398" stroke-width="1.5"></path>
                <g id="Combined-Shape" transform="translate(16.499955, 16.501516) scale(-1, 1) translate(-16.499955, -16.501516) ">
                    <use fill="#FFFFFF" fill-rule="evenodd" xlink:href="#path-1"></use>
                    <path stroke="#8E9398" stroke-width="1.5" d="M18.143713,12.7958184 L20.2377389,12.762297 L20.2040693,14.8875887 L15.2637636,19.8268695 C14.6946277,20.3958874 13.7789724,20.3947038 13.209813,19.8256047 L13.1728692,19.7886648 C12.6074669,19.2233224 12.6089192,18.3028272 13.1779967,17.7366065 L18.143713,12.7958184 Z"></path>
                </g>
                <path d="M20.629693,6.3124826 C20.8686329,6.91303791 21,7.56807045 21,8.25378573 C21,11.1553715 18.6478248,13.5075715 15.7462696,13.5075715 C15.1179515,13.5075715 14.5153948,13.3972724 13.9569056,13.1949805 L6.79792676,20.3532818 C5.93711673,21.2140104 4.53996766,21.2162379 3.67960149,20.3559629 L3.64265765,20.3190229 C2.78449221,19.4609484 2.78503397,18.062758 3.64878316,17.2009922 L10.8099075,10.056312 C10.6045755,9.49413139 10.4925392,8.88704243 10.4925392,8.25378573 C10.4925392,5.35219999 12.8447145,3 15.7462696,3 C16.4346815,3 17.0921686,3.13240651 17.6946539,3.37314246 L14.1598116,6.90117387 C13.2950551,7.76426421 13.2912654,9.16117853 14.1512261,10.0211482 L13.9789257,9.84884608 C14.8389406,10.70887 16.2370416,10.7051357 17.0988672,9.84330975 L20.629693,6.3124826 Z" id="Combined-Shape" fill="#8E9398"></path>
                <path d="M5.06370894,3.64339784 L7.5,5.26759188 L7.5,7.5 L5.26759188,7.5 L3.64339784,5.06370894 L5.06370894,3.64339784 Z" id="Path-4" stroke="#8E9398"></path>
            </g>
        </g>
    </g>
</svg>